<svg width="123" height="34" viewBox="0 0 123 34" fill="none" xmlns="http://www.w3.org/2000/svg">
<path d="M18.4961 17.5273C18.4961 14.1707 17.43 9.75 9.99216 9.75C7.09899 9.75 4.58919 10.4308 2.80601 11.3691L3.10162 15.7861C4.54914 14.5979 6.80148 13.6196 9.0996 13.6196C12.4581 13.6196 13.3926 15.4905 13.3926 17.5273V18.3836H11.3538C3.78818 18.3836 0.551758 21.2272 0.551758 25.8234C0.551758 30.0325 3.27517 32.5003 7.05894 32.5003C9.99408 32.5003 11.7791 31.1367 13.3926 29.098H13.4383C13.4383 29.6091 13.65 31.5639 13.6901 32.075H18.7078C18.5819 31.0109 18.498 29.4813 18.498 27.9498V17.5273H18.4961ZM13.3926 23.1C13.3926 25.6518 12.2044 28.6746 8.88792 28.6746C6.89111 28.6746 5.74301 27.5646 5.74301 25.442C5.74301 22.8883 7.86948 21.3588 11.6933 21.3588C12.1606 21.3588 13.139 21.3588 13.3926 21.4026V23.1Z" fill="white"></path>
<path d="M31.9677 19.6137L30.0549 18.8909C27.9303 18.0842 26.95 17.3194 26.95 16.0855C26.95 14.638 28.1858 13.7892 30.1006 13.7892C31.8857 13.7892 33.6689 14.3843 34.9448 14.9355L35.1565 10.6425C33.7127 10.1352 31.7999 9.74805 29.7592 9.74805C24.2743 9.74805 21.6348 12.7652 21.6348 16.5489C21.6348 19.3124 22.7409 21.1394 26.0613 22.4572L28.3975 23.3975C30.3561 24.1623 31.0332 24.887 31.0332 26.0312C31.0332 27.3491 29.8031 28.3256 27.421 28.3256C25.1668 28.3256 23.336 27.5226 21.9342 26.754L21.7664 31.3445C23.1701 31.9872 25.7637 32.4927 28.1 32.4927C33.8367 32.4927 36.3065 29.6434 36.3065 25.4782C36.3065 22.2055 34.6492 20.634 31.9677 19.6137Z" fill="white"></path>
<path d="M45.0522 10.1348H39.3994V32.0708H45.0522V10.1348Z" fill="white"></path>
<path d="M59.6714 28.3267C58.1818 28.3267 57.2912 27.48 57.2912 25.3096V14.2119H61.67V10.1344H57.2912V3.88281L51.6804 5.58208V10.1344H48.0186V14.2119H51.6804V26.6293C51.6804 30.6268 53.9766 32.4938 57.7146 32.4938C59.3281 32.4938 60.8633 32.1982 61.7597 31.9388L61.6719 27.9033C61.1608 28.1588 60.48 28.3267 59.6714 28.3267Z" fill="white"></path>
<path d="M73.1968 9.56445C66.2681 9.56445 63.333 14.5383 63.333 20.9196C63.333 27.3372 66.2662 32.3148 73.1968 32.3148C80.0911 32.3148 83.0628 27.3391 83.0628 20.9196C83.0644 14.5383 80.0911 9.56445 73.1968 9.56445ZM73.1968 28.2335C70.1816 28.2335 69.2051 25.2526 69.2051 20.9196C69.2051 16.6228 70.1816 13.6076 73.1968 13.6076C76.1757 13.6076 77.1941 16.6228 77.1941 20.9196C77.1941 25.2526 76.1757 28.2335 73.1968 28.2335Z" fill="white"></path>
<path d="M42.2034 0.5C40.487 0.5 39.0986 1.8884 39.0986 3.60293C39.0986 5.31554 40.487 6.70966 42.2034 6.70966C43.9141 6.70966 45.3063 5.31745 45.3063 3.60293C45.3063 1.8884 43.9141 0.5 42.2034 0.5Z" fill="white"></path>
<path fill-rule="evenodd" clip-rule="evenodd" d="M121.547 26.516C121.563 26.572 121.571 26.628 121.571 26.692C121.651 29.82 119.515 31.404 118.243 32.068C117.251 32.58 116.099 32.852 114.883 32.852C113.619 32.852 112.387 32.556 111.219 31.972C110.099 31.412 109.323 30.988 108.747 30.668L108.691 30.636C107.667 30.068 107.283 29.852 106.587 29.796H106.363C105.683 29.852 105.299 30.068 104.275 30.636C103.699 30.956 102.907 31.388 101.747 31.972C100.579 32.556 99.3465 32.852 98.0825 32.852C96.8905 32.852 95.6985 32.572 94.7225 32.068C93.4505 31.404 91.3145 29.82 91.3865 26.692C91.3865 26.628 91.4025 26.572 91.4185 26.516C91.4265 26.476 91.4425 26.428 91.4425 26.38C91.4105 26.108 91.3785 25.836 91.3865 25.54C91.3865 25.468 91.4025 25.412 91.4105 25.348C91.4185 25.3 91.4265 25.26 91.4345 25.212C91.4345 25.204 91.4345 25.188 91.4345 25.18C91.4105 24.924 91.3785 24.668 91.3865 24.388C91.4505 21.596 93.4665 20.332 94.3225 19.796C94.7465 19.508 95.3305 19.252 95.9705 19.012C95.4505 18.724 95.0265 18.228 94.9385 17.668C94.8985 17.284 94.9065 16.924 94.9625 16.58C94.9625 16.572 94.9625 16.556 94.9465 16.548C94.9465 16.54 94.9385 16.524 94.9305 16.516C94.8905 16.14 94.9145 15.78 94.9625 15.444C94.9625 15.428 94.9545 15.42 94.9465 15.404C94.9465 15.388 94.9305 15.38 94.9305 15.364C94.6825 12.972 96.1385 11.3 99.2505 10.396C99.8345 10.228 100.675 10.124 101.539 10.124C102.579 10.124 105.099 10.284 106.467 11.692C107.835 10.284 110.355 10.124 111.395 10.124C112.259 10.124 113.091 10.22 113.683 10.396C116.795 11.3 118.243 12.972 118.003 15.348C118.003 15.364 117.995 15.38 117.987 15.396C117.987 15.412 117.971 15.42 117.971 15.436C118.019 15.78 118.043 16.132 118.003 16.508C118.003 16.516 118.003 16.532 117.987 16.54C117.987 16.548 117.979 16.564 117.971 16.572C118.027 16.916 118.035 17.276 117.995 17.66C117.899 18.228 117.483 18.724 116.963 19.012C117.603 19.26 118.179 19.516 118.611 19.804C119.467 20.34 121.483 21.596 121.547 24.396C121.547 24.684 121.523 24.94 121.499 25.196V25.228C121.499 25.276 121.507 25.324 121.523 25.364C121.539 25.42 121.547 25.484 121.547 25.556C121.547 25.86 121.523 26.132 121.499 26.404C121.499 26.452 121.515 26.492 121.523 26.54L121.547 26.516ZM114.875 30.164C116.011 30.164 117.139 29.9 118.067 29.42C119.267 28.796 121.275 27.316 121.203 24.388C121.139 21.788 119.315 20.644 118.435 20.1C117.355 19.372 115.363 18.812 113.427 18.268L113.347 18.244C111.883 17.828 110.507 17.436 109.627 16.996C108.043 16.204 107.811 15.124 107.811 14.548C107.811 13.876 107.987 13.108 109.323 12.532C109.595 12.412 109.867 12.356 110.131 12.356C111.163 12.356 112.035 13.22 113.099 14.62C114.611 16.58 115.547 16.58 115.899 16.58H116.107C116.803 16.58 117.539 15.956 117.651 15.276C117.875 13.076 116.547 11.588 113.595 10.724C113.035 10.564 112.243 10.468 111.411 10.468C110.395 10.468 107.883 10.62 106.651 12.028L106.595 12.092H106.371L106.315 12.028C105.075 10.62 102.571 10.468 101.547 10.468C100.715 10.468 99.9225 10.564 99.3625 10.724C96.4025 11.588 95.0825 13.076 95.3065 15.284C95.4105 15.956 96.1465 16.58 96.8505 16.58H96.8905H97.0585C97.4105 16.58 98.3465 16.58 99.8665 14.62C100.923 13.22 101.795 12.356 102.835 12.356C103.099 12.356 103.371 12.412 103.643 12.532C104.971 13.108 105.155 13.868 105.155 14.548C105.155 15.124 104.915 16.212 103.339 16.996C102.443 17.444 101.035 17.844 99.5385 18.268C97.6025 18.812 95.6105 19.38 94.5385 20.1C93.6585 20.652 91.8265 21.796 91.7625 24.396C91.6905 27.324 93.6985 28.804 94.8985 29.428C95.8185 29.908 96.9545 30.172 98.0905 30.172C99.2985 30.172 100.475 29.892 101.587 29.332C102.731 28.764 103.515 28.332 104.091 28.012L104.123 27.996C105.155 27.428 105.587 27.188 106.355 27.124H106.611C107.403 27.188 107.835 27.428 108.883 28.012C109.459 28.332 110.243 28.764 111.387 29.332C112.499 29.892 113.675 30.172 114.883 30.172L114.875 30.164ZM100.163 17.164C99.9465 17.444 99.7465 17.668 99.5545 17.876C100.987 17.468 102.323 17.084 103.163 16.668C103.723 16.388 104.067 16.076 104.315 15.756C104.131 15.564 103.899 15.364 103.491 15.188C103.259 15.092 103.043 15.044 102.827 15.044C101.947 15.044 101.155 15.852 100.155 17.164H100.163ZM109.795 16.66C110.635 17.084 111.987 17.468 113.419 17.876C113.219 17.668 113.019 17.444 112.803 17.164C111.811 15.852 111.011 15.044 110.131 15.044C109.915 15.044 109.699 15.092 109.475 15.188C109.067 15.364 108.827 15.556 108.643 15.748C108.891 16.068 109.235 16.38 109.803 16.66H109.795ZM109.323 13.692C109.595 13.572 109.867 13.516 110.131 13.516C111.163 13.516 112.035 14.38 113.099 15.78C114.611 17.74 115.547 17.74 115.899 17.74H115.987C115.987 17.74 116.043 17.74 116.059 17.74H116.107C116.763 17.74 117.443 17.18 117.611 16.548C117.595 16.436 117.571 16.332 117.547 16.228C117.163 16.668 116.611 16.98 116.051 16.964H115.899C115.491 16.964 114.427 16.964 112.803 14.86C111.811 13.548 111.011 12.74 110.131 12.74C109.915 12.74 109.699 12.788 109.467 12.884C108.307 13.38 108.187 13.988 108.187 14.524C108.411 14.228 108.755 13.948 109.323 13.7V13.692ZM95.3065 17.396C95.3065 17.348 95.3065 17.308 95.3065 17.26C95.6745 17.748 96.2585 18.108 96.8505 18.108C96.8665 18.108 96.8905 18.108 96.9065 18.108H97.0585C97.7465 18.108 98.7225 17.868 100.163 16.004C101.155 14.7 101.947 13.884 102.835 13.884C103.051 13.884 103.267 13.932 103.499 14.028C104.267 14.356 104.563 14.732 104.691 15.1C104.659 15.212 104.603 15.324 104.539 15.436C104.331 15.228 104.067 15.02 103.651 14.844C103.379 14.724 103.107 14.668 102.843 14.668C101.811 14.668 100.939 15.532 99.8825 16.932C99.4745 17.46 99.1225 17.812 98.8025 18.092C98.0025 18.324 97.2105 18.556 96.4825 18.804C95.9225 18.636 95.4105 18.148 95.3305 17.596C95.3305 17.524 95.3305 17.46 95.3305 17.396H95.3065ZM116.491 18.804C117.051 18.636 117.563 18.14 117.659 17.588C117.667 17.516 117.659 17.444 117.659 17.38C117.659 17.34 117.659 17.3 117.659 17.26C117.275 17.772 116.659 18.132 116.051 18.108H115.899C115.211 18.108 114.235 17.868 112.803 16.004C111.803 14.692 111.011 13.884 110.131 13.884C109.915 13.884 109.699 13.932 109.467 14.028C108.699 14.356 108.395 14.732 108.275 15.1C108.307 15.212 108.363 15.324 108.427 15.436C108.643 15.228 108.899 15.02 109.323 14.844C109.595 14.724 109.867 14.668 110.131 14.668C111.163 14.668 112.035 15.532 113.099 16.932C113.507 17.46 113.859 17.812 114.179 18.092C114.979 18.324 115.763 18.556 116.491 18.804ZM114.883 32.476C116.019 32.476 117.147 32.212 118.067 31.732C119.059 31.212 120.587 30.092 121.051 28.076C120.355 29.564 119.107 30.46 118.235 30.908C117.251 31.42 116.083 31.692 114.875 31.692C113.667 31.692 112.379 31.396 111.211 30.812C110.083 30.252 109.307 29.82 108.731 29.5L108.691 29.476C107.659 28.908 107.275 28.692 106.579 28.636H106.355C105.675 28.692 105.291 28.908 104.259 29.476L104.179 29.516C103.611 29.828 102.843 30.252 101.739 30.804C100.571 31.388 99.3385 31.684 98.0745 31.684C96.8825 31.684 95.6905 31.404 94.7145 30.9C93.8505 30.452 92.5945 29.564 91.8985 28.068C92.3625 30.092 93.8905 31.212 94.8825 31.732C95.8025 32.212 96.9385 32.476 98.0665 32.476C99.2745 32.476 100.451 32.196 101.563 31.636C102.715 31.06 103.499 30.628 104.075 30.308C105.123 29.732 105.555 29.492 106.331 29.428H106.587C107.371 29.492 107.811 29.732 108.851 30.308C109.427 30.628 110.211 31.06 111.363 31.636C112.475 32.196 113.651 32.476 114.859 32.476H114.883ZM96.8505 17.74H96.8985C96.8985 17.74 96.9465 17.74 96.9705 17.74H97.0585C97.4105 17.74 98.3545 17.74 99.8665 15.78C100.923 14.38 101.795 13.516 102.827 13.516C103.091 13.516 103.363 13.572 103.635 13.692C104.211 13.94 104.555 14.22 104.771 14.516C104.771 14.116 104.747 13.412 103.491 12.876C103.259 12.78 103.043 12.732 102.827 12.732C101.947 12.732 101.147 13.54 100.155 14.852C98.7145 16.716 97.7465 16.956 97.0585 16.956H96.9065C96.3465 16.98 95.8025 16.668 95.4105 16.236C95.3865 16.34 95.3625 16.444 95.3465 16.556C95.5145 17.188 96.1865 17.748 96.8505 17.748V17.74ZM118.235 29.748C117.243 30.26 116.083 30.532 114.875 30.532C113.667 30.532 112.379 30.236 111.211 29.652C110.083 29.092 109.307 28.66 108.731 28.34L108.691 28.316C107.667 27.748 107.275 27.54 106.587 27.476H106.363C105.683 27.532 105.299 27.748 104.267 28.308L104.203 28.34C103.627 28.652 102.851 29.084 101.747 29.644C100.579 30.228 99.3465 30.524 98.0825 30.524C96.8905 30.524 95.6985 30.244 94.7225 29.74C93.8585 29.292 92.6265 28.412 91.9225 26.94C92.3945 28.948 93.9065 30.052 94.8905 30.564C95.8105 31.044 96.9465 31.308 98.0825 31.308C99.2905 31.308 100.467 31.028 101.579 30.468C102.707 29.908 103.483 29.476 104.059 29.156L104.083 29.14C105.139 28.556 105.571 28.316 106.347 28.252H106.603C107.395 28.316 107.827 28.556 108.875 29.14L108.923 29.164C109.491 29.476 110.267 29.908 111.379 30.46C112.491 31.02 113.667 31.3 114.875 31.3C116.011 31.3 117.139 31.036 118.067 30.556C119.059 30.044 120.571 28.932 121.035 26.932C120.331 28.404 119.091 29.276 118.235 29.724V29.748Z" fill="white"></path>
<path d="M104.715 17.8281C104.603 19.0681 104.251 19.4841 101.091 20.7241C97.6748 22.0601 97.6748 23.6601 97.6748 24.2601C97.6748 25.0281 98.2668 27.2281 100.891 27.2281C101.123 27.2281 101.371 27.2121 101.627 27.1721C103.923 26.8521 105.083 25.0201 105.083 21.7241V17.8521L104.715 17.8361V17.8281ZM101.219 21.0681C103.283 20.2601 104.235 19.7721 104.691 19.1081C104.563 20.2441 104.131 20.6841 101.083 21.8761C99.2588 22.5881 98.4348 23.3721 98.0428 24.0441C98.0828 23.4121 98.3948 22.1721 101.219 21.0681ZM98.1308 24.7561C98.3148 24.0761 98.9628 23.1161 101.227 22.2201C103.291 21.4121 104.243 20.9241 104.699 20.2681C104.571 21.4041 104.139 21.8361 101.091 23.0361C99.4668 23.6761 98.6428 24.3641 98.1948 24.9801C98.1708 24.9001 98.1468 24.8201 98.1308 24.7561ZM104.715 21.7161C104.715 22.8681 104.715 26.3561 101.571 26.7961C101.331 26.8281 101.107 26.8441 100.883 26.8441C99.4028 26.8441 98.6988 26.0841 98.3628 25.3881C98.7148 24.7801 99.4748 24.0521 101.219 23.3721C103.307 22.5481 104.259 22.0681 104.707 21.3961V21.7081L104.715 21.7161Z" fill="white"></path>
<path d="M111.875 20.7163C108.715 19.4763 108.363 19.0603 108.243 17.8203L107.867 17.8363V21.7083C107.867 25.0043 109.035 26.8363 111.323 27.1563C111.579 27.1963 111.827 27.2123 112.059 27.2123C114.691 27.2123 115.275 25.0123 115.275 24.2443C115.275 23.6443 115.275 22.0523 111.859 20.7083L111.875 20.7163ZM111.739 21.0683C114.571 22.1803 114.883 23.4123 114.915 24.0443C114.523 23.3723 113.699 22.5963 111.875 21.8763C108.827 20.6763 108.395 20.2443 108.267 19.1083C108.723 19.7723 109.675 20.2603 111.739 21.0683ZM112.067 26.8523C111.851 26.8523 111.619 26.8363 111.379 26.8043C108.243 26.3643 108.243 22.8683 108.243 21.7243V21.4043C108.691 22.0763 109.643 22.5643 111.731 23.3803C113.475 24.0603 114.235 24.7883 114.587 25.3963C114.243 26.0923 113.547 26.8523 112.067 26.8523ZM114.771 24.9803C114.323 24.3643 113.507 23.6683 111.875 23.0363C108.827 21.8363 108.395 21.4043 108.267 20.2683C108.723 20.9323 109.675 21.4203 111.739 22.2283C114.011 23.1163 114.651 24.0843 114.835 24.7643C114.819 24.8363 114.795 24.9083 114.771 24.9883V24.9803Z" fill="white"></path>
</svg>