<svg width="43" height="40" viewBox="0 0 43 40" fill="none" xmlns="http://www.w3.org/2000/svg">
<mask id="mask0_124_330" style="mask-type:luminance" maskUnits="userSpaceOnUse" x="0" y="0" width="43" height="40">
<path d="M42.5986 0H0.421387V40H42.5986V0Z" fill="white"></path>
</mask>
<g mask="url(#mask0_124_330)">
<path d="M35.0474 2.08368V1.39355H38.0555V2.08368H36.9983V5.31052H36.1051V2.08368H35.0474Z" fill="white"></path>
<path d="M39.6292 1.39355L40.5442 3.83153L41.448 1.39355H42.5983V5.31102H41.7163V2.56064L40.6313 5.31102H40.3406L39.2505 2.56064V5.31102H38.4561V1.39355H39.6292Z" fill="white"></path>
<path fill-rule="evenodd" clip-rule="evenodd" d="M40.4214 20C40.4214 31.0457 31.4671 40 20.4214 40C9.37569 40 0.421387 31.0457 0.421387 20C0.421387 8.9543 9.37569 0 20.4214 0C31.4671 0 40.4214 8.9543 40.4214 20ZM11.0259 15.8436C11.7176 15.8436 12.1156 15.6355 12.1156 14.8962V11.1438H10.2776V9.87395H13.5368V14.5737C13.5368 16.8289 12.191 17.0562 10.751 17.0562H10.2963V15.8436H11.0259ZM21.4087 22.3089H19.9875V29.4339H21.4087V22.3089ZM12.9115 22.3089C14.4087 22.3089 15.2614 23.2471 15.2614 24.4314C15.2614 25.1803 14.8543 26.1555 13.9353 26.4304L15.5935 29.434H13.8973L12.5044 26.6198H11.6705V29.434H10.2492V22.3089H12.9115ZM11.6705 25.4643H12.6179C13.5936 25.4643 13.8406 24.9433 13.8406 24.4886C13.8406 23.9767 13.5941 23.522 12.5708 23.522H11.6705V25.4643ZM20.786 9.74178C18.5688 9.74178 17.3181 11.523 17.3181 13.437C17.3181 15.3509 18.5688 17.1322 20.786 17.1322C23.0032 17.1322 24.2538 15.3509 24.2538 13.437C24.2538 11.523 23.0032 9.74178 20.786 9.74178ZM20.786 15.8628C19.4594 15.8628 18.7961 14.7165 18.7961 13.437C18.7961 12.1575 19.4594 11.0111 20.786 11.0111C22.1126 11.0111 22.7758 12.1575 22.7758 13.437C22.7758 14.7165 22.1126 15.8628 20.786 15.8628ZM28.4097 25.0187L29.7176 25.4354L29.7171 25.4365C30.6644 25.7397 31.3373 26.2891 31.3373 27.3884C31.3373 28.2597 30.7115 29.5676 28.7409 29.5676C26.268 29.5676 26.0406 27.9661 26.0406 27.3311L27.4619 27.3028C27.4619 28.0608 28.0589 28.3544 28.7505 28.3544C29.2341 28.3544 29.9161 28.1175 29.9161 27.5681C29.9161 27.1889 29.7551 26.9899 29.0538 26.7342L27.4999 26.1752C26.7135 25.8911 26.1642 25.1995 26.1642 24.3939C26.1642 23.4841 26.7895 22.1767 28.6371 22.1767C30.8351 22.1767 31.1859 23.636 31.1859 24.157L29.7647 24.1853C29.7647 23.6927 29.2913 23.3894 28.7227 23.3894C28.0118 23.3894 27.5854 23.683 27.5854 24.1757C27.5854 24.6684 28.0594 24.9048 28.4097 25.0187Z" fill="white"></path>
</g>
</svg>