<svg width="97" height="24" viewBox="0 0 97 24" fill="none" xmlns="http://www.w3.org/2000/svg">
<mask id="mask0_124_385" style="mask-type:luminance" maskUnits="userSpaceOnUse" x="0" y="0" width="97" height="24">
<path d="M96.7803 23.756V0.244141L0.30027 0.244141V23.756L96.7803 23.756Z" fill="white"></path>
</mask>
<g mask="url(#mask0_124_385)">
<path d="M82.1513 0.611328C77.9031 0.611328 74.1986 2.34509 71.6837 5.1667L73.0772 1.46121C72.3975 1.15525 71.5478 1.01927 70.5962 1.01927C66.9938 1.01927 65.3965 2.92301 63.9351 4.96273H63.8332C64.0371 4.18084 64.3429 2.54906 64.4449 1.59719H57.172L55.7447 9.62007C55.5408 4.24883 51.8363 0.781304 46.2288 0.781305C41.3349 0.781304 37.1887 3.12698 34.8097 6.96845C34.8097 6.93446 34.8097 6.86647 34.8097 6.83247C34.8097 2.65105 32.8386 1.12125 29.8479 1.12125C26.6873 1.12125 24.7161 2.48107 22.9488 4.86075H22.8469C22.3032 2.10712 20.6379 1.12125 18.021 1.12125C14.3507 1.12125 12.7195 3.025 11.2236 5.06472H11.1223C11.3258 4.28282 11.6655 2.54906 11.7676 1.59719H4.39295L0.416992 22.8783H8.06324L8.26756 21.6204C10.4761 9.21218 12.5492 7.68235 13.8407 7.68235C14.8607 7.68235 15.3025 8.0563 14.8947 10.096L12.4811 22.8783H20.1281L20.3321 21.6204C22.541 9.21218 24.6481 7.68236 25.9056 7.68236C26.9251 7.68236 27.367 8.0563 26.9592 10.096L24.5462 22.8783H32.1249L33.1105 17.473C34.232 21.3485 37.6645 23.7281 42.4565 23.7281C48.132 23.7281 52.4821 21.0085 54.4872 16.4192L53.3317 22.7763H60.8085L61.0124 21.5185C63.0515 9.82406 65.2945 7.17242 69.5767 8.36227C68.7271 10.198 68.2512 12.2717 68.2512 14.5154C68.2512 20.2606 71.8537 23.6942 77.8691 23.6942C82.7969 23.6942 85.7877 21.9264 87.5888 20.6006L87.8267 20.4306L85.006 15.6033L84.7001 15.8412C83.2387 16.8611 81.4376 17.9149 79.0585 17.9149C77.2913 17.9149 76.4417 17.201 76.1359 15.3313C84.972 14.4474 89.8659 11.3878 89.8659 6.66249C89.8319 2.88901 86.9771 0.611327 82.1513 0.611328ZM43.2381 17.9149C41.6068 17.9149 40.8931 16.4872 40.8931 14.4134C40.8931 11.2178 42.5584 6.5945 45.5491 6.5945C47.1464 6.5945 47.7921 7.78434 47.7921 9.79009C47.7921 13.0197 46.5346 17.9149 43.2381 17.9149ZM76.4757 10.7079C77.1214 8.46426 78.6168 6.18656 80.9617 6.18656C82.0153 6.18656 82.491 6.5945 82.491 7.47838C82.5251 9.11019 80.248 10.3 76.4757 10.7079Z" fill="white"></path>
<path d="M93.4687 2.07324C93.2988 2.07324 93.1968 2.07324 93.1289 2.10724V2.85514H93.4347C93.7746 2.85514 93.9785 2.71915 93.9785 2.44719C93.9445 2.17523 93.7406 2.07324 93.4687 2.07324Z" fill="white"></path>
<path d="M93.4684 0.271484C91.9391 0.271484 90.6816 1.52931 90.6816 3.0591C90.6816 4.58889 91.9391 5.84672 93.4684 5.84672C94.9977 5.84672 96.2552 4.58889 96.2552 3.0591C96.2552 1.49531 95.0317 0.271484 93.4684 0.271484ZM94.0462 4.38491C94.0122 4.31692 93.9442 4.11295 93.8422 3.73901C93.7403 3.39905 93.6383 3.29707 93.3325 3.29707H93.1286V4.38491H92.4489V1.63129C92.6528 1.5973 92.9926 1.5633 93.3665 1.5633C93.8083 1.5633 94.1141 1.63129 94.318 1.80127C94.488 1.93726 94.5899 2.14123 94.5899 2.37919C94.5899 2.75315 94.2841 2.99111 94.0801 3.0591C94.2841 3.12709 94.386 3.33106 94.454 3.56903C94.5559 3.87499 94.6239 4.24893 94.6919 4.38491H94.0462Z" fill="white"></path>
</g>
</svg>