<svg width="141" height="36" viewBox="0 0 141 36" fill="none" xmlns="http://www.w3.org/2000/svg">
<path d="M21.452 17.0443C21.0229 16.9822 20.643 16.7615 20.643 15.8925V12.0305H22.268V10.8994H20.643V8.12012L19.3414 8.86494V10.8994H17.9062V12.0305H19.3414V16.2236C19.3414 17.127 19.8128 17.7339 20.4319 18.0236C21.1143 18.3408 21.867 18.3546 22.5142 18.1339L22.254 17.0029C22.057 17.0443 21.7897 17.0925 21.452 17.0443Z" fill="white"></path>
<path d="M87.9278 15.534C86.753 14.1685 85.163 13.472 83.1861 13.472C80.9841 13.472 79.1901 14.203 77.8605 15.6444C76.5731 17.0582 75.9258 18.8306 75.9258 20.9064C75.9258 22.9823 76.5801 24.7547 77.8675 26.1685C79.1972 27.6099 80.9419 28.334 83.0525 28.334C85.163 28.334 86.767 27.6513 87.9349 26.2995V28.1064H90.5168V8.10645H87.9349V15.534H87.9278ZM86.8092 24.5133C85.951 25.5133 84.8113 26.003 83.3268 26.003C81.8424 26.003 80.6886 25.4995 79.7881 24.5133C78.9369 23.5685 78.5007 22.3616 78.5007 20.9133C78.5007 19.4651 78.9298 18.2513 79.7881 17.3133C80.6886 16.3202 81.8846 15.8168 83.3268 15.8168C84.769 15.8168 85.951 16.3064 86.8092 17.3064C87.6253 18.2513 88.0404 19.4651 88.0404 20.9133C88.0404 22.3616 87.6253 23.5754 86.8092 24.5202" fill="white"></path>
<path d="M112.22 8.10645H109.638V28.1133H112.22V8.10645Z" fill="white"></path>
<path d="M115.921 28.1142H118.503V6.79004L115.921 8.08659V28.1142Z" fill="white"></path>
<path d="M121.394 34.7073H123.976V8.08659L121.394 6.79004V34.7073Z" fill="white"></path>
<path d="M134.465 19.4513L140.452 13.6995H136.815L130.258 20.3133V8.10645H127.677V28.1133H130.258V23.5685L132.686 21.2168L137.596 28.1133H140.762L134.465 19.4513Z" fill="white"></path>
<path d="M115.921 4.94138L118.503 3.63793V0.5L115.921 1.79655V4.94138Z" fill="white"></path>
<path d="M123.976 1.79655L121.394 0.5V3.63793L123.976 4.94138V1.79655Z" fill="white"></path>
<path d="M66.5621 13.4795C64.3812 13.4795 62.5802 14.2105 61.2084 15.645C59.9209 17.0243 59.2666 18.7967 59.2666 20.9071C59.2666 23.0174 59.9491 24.776 61.2928 26.176C62.6787 27.6105 64.5008 28.3416 66.7028 28.3416C68.4335 28.3416 69.8757 27.9347 70.9873 27.1278C72.0707 26.3347 72.8797 25.2933 73.3862 24.0174H70.53C69.7209 25.3554 68.4757 26.0105 66.731 26.0105C65.3872 26.0105 64.2687 25.5967 63.4033 24.7829C62.6084 24.0381 62.1159 23.0933 61.933 21.9691H73.8506V20.914C73.8506 18.7967 73.1963 17.0243 71.9089 15.6519C70.544 14.2174 68.743 13.4864 66.5551 13.4864M61.9682 19.5829C62.1792 18.5209 62.6576 17.6381 63.3963 16.9691C64.2405 16.2105 65.3099 15.8243 66.5551 15.8243C67.8003 15.8243 68.8697 16.2105 69.7139 16.9691C70.4526 17.645 70.931 18.5209 71.142 19.5829H61.9682Z" fill="white"></path>
<path d="M99.8668 13.4795C97.6859 13.4795 95.8849 14.2105 94.5131 15.645C93.2256 17.0243 92.5713 18.7967 92.5713 20.9071C92.5713 23.0174 93.2538 24.776 94.5975 26.176C95.9834 27.6105 97.8055 28.3416 100.007 28.3416C101.738 28.3416 103.18 27.9347 104.292 27.1278C105.375 26.3347 106.184 25.2933 106.691 24.0174H103.834C103.025 25.3554 101.78 26.0105 100.035 26.0105C98.6919 26.0105 97.5734 25.5967 96.708 24.7829C95.9131 24.0381 95.4206 23.0933 95.2377 21.9691H107.155V20.914C107.155 18.7967 106.501 17.0243 105.213 15.6519C103.841 14.2174 102.04 13.4864 99.8598 13.4864M95.2729 19.5829C95.4839 18.5209 95.9623 17.6381 96.701 16.9691C97.5452 16.2105 98.6075 15.8243 99.8598 15.8243C101.112 15.8243 102.174 16.2105 103.018 16.9691C103.757 17.645 104.235 18.5209 104.446 19.5829H95.2729Z" fill="white"></path>
<path d="M6.9177 12.4926H2.04232V8.11328H0.754883V18.1271H2.04232V13.7271H6.9177V18.1271H8.20514V8.11328H6.9177V12.4926Z" fill="white"></path>
<path d="M13.5171 10.4102C12.3634 10.4102 11.4136 10.7964 10.696 11.5481C10.0136 12.2722 9.66895 13.2102 9.66895 14.3274C9.66895 15.4446 10.0277 16.3688 10.7382 17.1067C11.4699 17.8653 12.4267 18.2446 13.5875 18.2446C14.5021 18.2446 15.2619 18.0308 15.8458 17.6033C16.4156 17.1895 16.8377 16.6446 17.1051 15.9757H15.684C15.2478 16.7205 14.5654 17.086 13.6016 17.086C12.8769 17.086 12.2649 16.8653 11.8006 16.4171C11.3573 16.0033 11.09 15.4722 10.9985 14.8446H17.3583V14.3274C17.3583 13.2102 17.0136 12.2791 16.3382 11.5481C15.6207 10.7895 14.6709 10.4102 13.5171 10.4102ZM11.0197 13.6584C11.1252 13.0584 11.3925 12.5688 11.8076 12.1895C12.2649 11.7757 12.8418 11.5688 13.5242 11.5688C14.2066 11.5688 14.7764 11.7757 15.2408 12.1895C15.6558 12.5688 15.9161 13.0584 16.0287 13.6584H11.0337H11.0197Z" fill="white"></path>
<path d="M30.6548 10.1074C30.6548 9.72814 30.8307 6.37642 36.8247 6.37642C42.8186 6.37642 43.6066 9.59021 43.7262 10.5764V10.6661H46.7583V10.5626C46.7583 8.28677 45.6327 6.44539 43.5081 5.2178C41.7915 4.2247 39.4206 3.65918 37.0217 3.65918C35.7061 3.65918 33.1945 3.8178 31.1121 4.87987C28.889 6.0109 27.7634 7.85228 27.7634 10.3626C27.7634 18.6799 44.4227 15.7212 44.4227 21.4247C44.4227 24.1971 42.2206 25.5419 37.683 25.5419C31.098 25.5419 30.1835 22.204 30.099 20.7695V20.673H27.0176V20.7833C27.299 23.5902 29.0297 28.3006 37.6478 28.3006C46.2659 28.3006 47.3845 23.4109 47.3845 21.3143C47.3845 12.7971 30.6478 15.9833 30.6478 10.1144" fill="white"></path>
<path d="M56.087 25.8103C55.2288 25.6862 54.4619 25.2379 54.4619 23.4862V15.7138H57.7262V13.431H54.4619L54.4408 7.83789L51.8378 9.33444V13.431H48.9463V15.7138H51.8378V24.1551C51.8378 25.9689 52.7805 27.1965 54.0328 27.7758C55.4117 28.4103 56.9242 28.4379 58.2187 27.9965L57.6981 25.7275C57.2971 25.8103 56.7624 25.9138 56.087 25.8172" fill="white"></path>
</svg>