<svg width="158" height="32" viewBox="0 0 158 32" fill="none" xmlns="http://www.w3.org/2000/svg">
<path d="M146.74 27.0555C141.893 27.0555 139.222 23.9036 139.222 19.0213C139.222 14.0772 141.862 10.9562 146.491 10.9562C150.188 10.9562 152.083 12.7793 152.611 15.375H152.891V6.04297H157.551V26.7464H153.202V22.4512H152.953C152.363 25.5104 150.313 27.0555 146.74 27.0555ZM143.944 19.0213C143.944 21.8332 145.342 22.8221 148.324 22.8221C151.276 22.8221 152.891 21.8023 152.891 19.114V18.8668C152.891 16.1784 151.307 15.1896 148.324 15.1896C145.342 15.1896 143.944 16.1784 143.944 19.0213Z" fill="white"></path>
<path d="M128.485 27.0553C123.296 27.0553 119.755 24.5215 119.755 19.0211C119.755 14.077 123.265 10.9561 128.391 10.9561C133.486 10.9561 136.873 13.6135 136.873 18.4649C136.873 19.0211 136.811 19.4228 136.748 19.9482H124.073C124.197 22.3275 125.316 23.3472 128.329 23.3472C131.094 23.3472 132.057 22.6365 132.057 21.3078V20.9988H136.717V21.3387C136.717 24.7069 133.424 27.0553 128.485 27.0553ZM128.298 14.5714C125.533 14.5714 124.353 15.4985 124.135 17.507H132.399C132.275 15.4676 131.032 14.5714 128.298 14.5714Z" fill="white"></path>
<path d="M104.38 26.7463H99.7202V11.2651H104.039V16.0238H104.318C104.722 13.4281 106.586 10.9561 110.656 10.9561C114.912 10.9561 116.931 13.6753 116.931 17.1053V26.7463H112.271V18.6503C112.271 16.1783 111.246 15.1277 108.388 15.1277C105.437 15.1277 104.38 16.3019 104.38 18.9284V26.7463Z" fill="white"></path>
<path d="M82.4751 32H79.9276V27.7975H83.7489C84.8984 27.7975 85.3954 27.4885 85.7061 26.8087L78.0947 11.2656H83.3761L86.6692 18.3419L87.974 21.9882H88.2846L89.5273 18.311L92.4787 11.2656H97.6669L89.9623 27.8593C88.471 31.1039 86.3896 32 82.4751 32Z" fill="white"></path>
<path d="M76.1214 26.7464H71.4614V6.04297H76.1214V26.7464Z" fill="white"></path>
<path d="M59.7411 27.0553C54.4287 27.0553 50.856 23.9035 50.856 19.0211C50.856 14.077 54.4287 10.9561 59.7411 10.9561C65.0536 10.9561 68.6263 14.077 68.6263 19.0211C68.6263 23.9035 65.0536 27.0553 59.7411 27.0553ZM59.7411 22.9455C62.8789 22.9455 63.9973 21.7404 63.9973 19.0211C63.9973 16.3019 62.8789 15.0349 59.7411 15.0349C56.5723 15.0349 55.485 16.3019 55.485 19.0211C55.485 21.7404 56.5723 22.9455 59.7411 22.9455Z" fill="white"></path>
<path d="M34.9383 31.9994H30.2783V11.2651H34.5966V15.4985H34.9073C35.4665 12.532 37.4547 10.9561 41.1206 10.9561C45.905 10.9561 48.5767 14.1079 48.5767 19.0211C48.5767 23.9344 45.9671 27.0553 41.276 27.0553C37.6722 27.0553 35.6839 25.294 35.1558 22.5747H34.9383V31.9994ZM34.9383 19.2374C34.9383 21.8949 36.5538 22.8219 39.4741 22.8219C42.4565 22.8219 43.8545 21.8331 43.8545 19.0211C43.8545 16.1783 42.4565 15.2204 39.5052 15.2204C36.4917 15.2204 34.9383 16.2401 34.9383 18.9902V19.2374Z" fill="white"></path>
<path d="M20.9959 22.979L23.6895 20.2998L16.2639 12.914L13.5703 15.5931L20.9959 22.979Z" fill="white"></path>
<path d="M3.29223 -0.000476192L0.598633 2.67871L8.02421 10.0646L10.7178 7.38538L3.29223 -0.000476192Z" fill="white"></path>
<path d="M23.6897 2.67919L20.9961 0L13.5705 7.38584L16.2641 10.065L23.6897 2.67919Z" fill="white"></path>
<path d="M0.599368 20.2993L3.29297 22.9785L10.7185 15.5927L8.02495 12.9135L0.599368 20.2993Z" fill="white"></path>
</svg>