<?xml version="1.0"?>

<svg width="100%" height="100%" viewBox="0 0 2106 1039" version="1.1" xmlns="http://www.w3.org/2000/svg" xmlns:xlink="http://www.w3.org/1999/xlink" xml:space="preserve" xmlns:serif="http://www.serif.com/" style="fill-rule:evenodd;clip-rule:evenodd;stroke-linejoin:round;stroke-miterlimit:2;">
    <g transform="matrix(1.33333,0,0,1.33333,0,0)">
        <g transform="matrix(4.16667,0,0,4.16667,0,0)">
            <path d="M159.127,130.505C159.127,132.869 157.984,135.079 156.063,136.446L88.34,176.28C85.842,177.984 82.615,177.986 80.115,176.28L12.538,136.447C10.615,135.08 9.472,132.869 9.472,130.505L9.458,47.125C10.26,26.37 27.394,9.732 48.341,9.732C63.304,9.732 74.103,19.063 80.526,26.89L84.258,31.313L87.803,26.903C93.108,20.491 104.368,9.732 120.176,9.732C141.2,9.732 158.662,26.796 159.127,47.778L159.127,130.505ZM120.176,0.303C107.168,0.303 94.625,6.126 84.257,16.814C73.895,5.99 61.527,0.303 48.341,0.303C21.685,0.303 0,21.989 0,48.645L0.043,130.505C0.043,136.033 2.768,141.195 7.335,144.313L74.939,184.161C77.769,186.053 80.999,187 84.227,187C87.456,187 90.684,186.054 93.514,184.163L161.264,144.313C165.83,141.195 168.556,136.033 168.556,130.505L168.555,47.63C168.011,21.534 146.308,0.303 120.176,0.303Z" style="fill:white;fill-rule:nonzero;"></path>
            <path d="M47.459,131.249L78.555,131.249L78.555,156.488L90.069,156.488L90.069,131.249L120.383,131.249L120.383,120.212L47.459,120.212L47.459,131.249Z" style="fill:white;fill-rule:nonzero;"></path>
            <path d="M114.512,86.529C110.567,82.242 105.087,79.882 99.079,79.882C90.137,79.882 84.326,85.115 81.555,90.52C79.619,87.361 75.386,82.701 67.263,82.701C61.822,82.701 56.823,84.893 53.187,88.873C49.803,92.579 47.784,97.745 47.504,103.419L47.459,111.818L58.487,111.818L58.575,103.561C59.195,98.1 62.639,94.707 67.566,94.707C72.601,94.707 76.122,98.101 76.756,103.563L76.845,111.871L87.544,111.871L87.579,103.5C87.876,96.664 92.397,91.889 98.575,91.889C104.81,91.889 109.373,96.664 109.672,103.5L109.708,111.765L120.69,111.765L120.683,103.455C120.629,96.807 118.437,90.796 114.512,86.529Z" style="fill:white;fill-rule:nonzero;"></path>
            <path d="M111.527,53.523L120.011,52.082L120.011,43.679L83.092,43.679L83.092,74.937L93.759,74.937L93.759,55.882C97.883,56.532 101.688,58.526 104.561,61.563C107.79,64.974 109.606,69.396 109.811,74.351L109.847,75.212L121.097,75.212L121.065,74.283C120.798,66.368 117.267,58.748 111.527,53.523Z" style="fill:white;fill-rule:nonzero;"></path>
            <path d="M58.739,74.35C58.91,70.08 60.23,66.313 62.664,63.152C64.945,60.191 68.089,57.928 71.76,56.607L72.673,56.278L72.673,44.402L70.986,44.787C64.666,46.226 58.809,49.965 54.493,55.318C50.125,60.737 47.702,67.296 47.487,74.286L47.459,75.212L58.705,75.212L58.739,74.35Z" style="fill:white;fill-rule:nonzero;"></path>
            <path d="M209.363,61.832C209.363,66.579 212.323,69.395 217.08,69.395C219.3,69.395 220.462,68.978 220.833,68.822L220.833,63.814C220.568,63.866 219.564,64.023 218.718,64.023C216.446,64.023 215.441,63.084 215.441,60.841L215.441,49.052L220.78,49.052L220.78,43.68L215.441,43.68L215.441,35.908L209.892,35.908L209.892,39.716C209.892,41.959 208.676,43.68 205.928,43.68L204.607,43.68L204.607,49.052L209.363,49.052L209.363,61.832Z" style="fill:white;fill-rule:nonzero;"></path>
            <path d="M236.272,48.374C240.078,48.374 243.46,51.087 243.46,56.355C243.46,61.675 240.078,64.44 236.272,64.44C232.52,64.44 229.084,61.623 229.084,56.355C229.084,51.087 232.52,48.374 236.272,48.374ZM236.272,69.865C243.989,69.865 249.644,64.179 249.644,56.355C249.644,48.583 243.989,42.898 236.272,42.898C228.609,42.898 222.953,48.583 222.953,56.355C222.953,64.179 228.609,69.865 236.272,69.865Z" style="fill:white;fill-rule:nonzero;"></path>
            <path d="M265.589,48.479C269.712,48.479 272.513,51.608 272.513,56.355C272.513,61.206 269.659,64.335 265.589,64.335C261.573,64.335 258.665,61.206 258.665,56.355C258.665,51.608 261.573,48.479 265.589,48.479ZM258.719,66.214C260.04,68.143 262.841,69.708 266.541,69.708C273.94,69.708 278.644,63.97 278.644,56.355C278.644,48.844 274.363,43.106 266.752,43.106C262.788,43.106 259.828,44.932 258.56,47.123L258.56,43.68L252.64,43.68L252.64,76.139L258.719,76.139L258.719,66.214Z" style="fill:white;fill-rule:nonzero;"></path>
            <path d="M220.568,111.815C216.657,111.815 213.644,108.79 213.644,103.782C213.644,98.723 216.657,95.854 220.568,95.854C224.638,95.854 227.492,98.723 227.492,103.782C227.492,108.79 224.585,111.815 220.568,111.815ZM221.784,90.481C217.82,90.481 214.86,92.307 213.697,94.289L213.697,81.882L207.672,81.882L207.672,116.562L213.644,116.562L213.644,113.171C215.124,115.623 217.925,117.187 221.572,117.187C229.077,117.187 233.676,111.398 233.676,103.73C233.676,96.272 229.5,90.481 221.784,90.481Z" style="fill:white;fill-rule:nonzero;"></path>
            <path d="M252.228,106.025C252.228,110.98 249.268,112.598 245.833,112.598C243.402,112.598 242.08,111.032 242.08,109.311C242.08,107.225 243.613,106.182 245.516,105.868L252.228,104.878L252.228,106.025ZM252.862,116.562L258.57,116.562C258.517,116.301 258.252,114.788 258.252,112.493L258.252,99.871C258.252,94.811 255.241,90.377 247.313,90.377C240.97,90.377 236.954,94.289 236.478,98.671L242.08,99.923C242.345,97.367 244.142,95.333 247.366,95.333C250.748,95.333 252.228,97.054 252.228,99.192C252.228,100.079 251.805,100.809 250.325,101.018L243.719,102.009C239.332,102.635 235.949,105.138 235.949,109.676C235.949,113.693 239.279,117.344 244.67,117.344C248.845,117.344 251.382,115.258 252.598,113.328C252.598,115.362 252.81,116.405 252.862,116.562Z" style="fill:white;fill-rule:nonzero;"></path>
            <path d="M275.867,101.904L286.437,91.16L278.298,91.16L268.414,101.435L268.414,81.882L262.336,81.882L262.336,116.562L268.414,116.562L268.414,109.468L271.585,106.182L279.143,116.562L286.648,116.562L275.867,101.904Z" style="fill:white;fill-rule:nonzero;"></path>
            <path d="M294.77,109.468L297.941,106.182L305.499,116.562L313.004,116.562L302.222,101.904L312.792,91.16L304.653,91.16L294.77,101.435L294.77,81.882L288.692,81.882L288.692,116.562L294.77,116.562L294.77,109.468Z" style="fill:white;fill-rule:nonzero;"></path>
            <path d="M318.751,101.07C318.963,98.358 321.183,95.437 325.041,95.437C329.269,95.437 331.278,98.097 331.383,101.07L318.751,101.07ZM324.988,90.377C318.487,90.377 312.462,95.697 312.462,103.73C312.462,112.337 318.646,117.344 325.622,117.344C331.806,117.344 335.876,113.745 337.25,109.311L332.07,107.694C331.225,110.198 329.322,112.128 325.622,112.128C321.817,112.128 318.751,109.363 318.593,105.503L337.408,105.503C337.461,105.399 337.567,104.564 337.567,103.574C337.567,95.541 332.916,90.377 324.988,90.377Z" style="fill:white;fill-rule:nonzero;"></path>
            <path d="M347.175,95.228L347.175,91.16L341.203,91.16L341.203,116.562L347.334,116.562L347.334,104.46C347.334,99.714 349.501,97.002 354.257,97.002C354.892,97.002 355.579,97.054 356.266,97.158L356.266,91.003C356.002,90.951 355.367,90.847 354.628,90.847C351.245,90.847 348.391,92.464 347.175,95.228Z" style="fill:white;fill-rule:nonzero;"></path>
            <path d="M370.93,101.487L367.02,100.705C365.434,100.392 364.43,99.401 364.43,98.045C364.43,96.48 365.962,95.124 368.129,95.124C371.565,95.124 372.675,97.471 372.886,98.932L378.066,97.471C377.643,94.968 375.317,90.377 368.129,90.377C362.791,90.377 358.669,94.133 358.669,98.567C358.669,102.061 361.047,104.982 365.593,105.973L369.398,106.807C371.459,107.225 372.41,108.268 372.41,109.624C372.41,111.189 371.089,112.545 368.552,112.545C365.275,112.545 363.531,110.511 363.32,108.216L357.982,109.676C358.299,112.545 361.153,117.344 368.605,117.344C375.159,117.344 378.33,113.067 378.33,109.207C378.33,105.451 375.793,102.53 370.93,101.487Z" style="fill:white;fill-rule:nonzero;"></path>
            <path d="M218.771,150.176C214.754,150.176 212.059,147.412 212.059,142.978C212.059,138.649 214.86,135.832 218.771,135.832C222.577,135.832 225.378,138.649 225.378,142.978C225.378,147.36 222.682,150.176 218.771,150.176ZM225.378,134.319C224.268,132.233 221.784,130.616 217.767,130.616C210.685,130.616 205.875,136.197 205.875,142.978C205.875,150.124 210.896,155.34 217.767,155.34C221.52,155.34 224.109,153.619 225.219,151.637L225.219,154.297C225.219,159.461 222.788,161.913 217.925,161.913C214.384,161.913 211.9,159.566 211.478,156.436L205.822,157.896C206.509,163.008 211.266,167.181 218.084,167.181C227.756,167.181 231.297,160.87 231.297,154.088L231.297,131.085L225.378,131.085L225.378,134.319Z" style="fill:white;fill-rule:nonzero;"></path>
            <path d="M241.446,135.154L241.446,131.085L235.474,131.085L235.474,156.488L241.605,156.488L241.605,144.387C241.605,139.64 243.772,136.928 248.528,136.928C249.162,136.928 249.849,136.98 250.537,137.084L250.537,130.93C250.272,130.878 249.638,130.772 248.898,130.772C245.516,130.772 242.662,132.389 241.446,135.154Z" style="fill:white;fill-rule:nonzero;"></path>
            <path d="M264.807,151.845C261.055,151.845 257.62,149.029 257.62,143.76C257.62,138.492 261.055,135.78 264.807,135.78C268.613,135.78 271.995,138.492 271.995,143.76C271.995,149.081 268.613,151.845 264.807,151.845ZM264.807,130.303C257.144,130.303 251.488,135.988 251.488,143.76C251.488,151.585 257.144,157.27 264.807,157.27C272.524,157.27 278.179,151.585 278.179,143.76C278.179,135.988 272.524,130.303 264.807,130.303Z" style="fill:white;fill-rule:nonzero;"></path>
            <path d="M287.599,140.996C287.81,138.284 290.03,135.363 293.888,135.363C298.117,135.363 300.125,138.023 300.231,140.996L287.599,140.996ZM293.835,130.303C287.334,130.303 281.309,135.623 281.309,143.656C281.309,152.263 287.493,157.27 294.47,157.27C300.653,157.27 304.723,153.671 306.097,149.237L300.918,147.62C300.072,150.124 298.169,152.054 294.47,152.054C290.664,152.054 287.599,149.29 287.44,145.43L306.256,145.43C306.309,145.325 306.414,144.491 306.414,143.5C306.414,135.467 301.763,130.303 293.835,130.303Z" style="fill:white;fill-rule:nonzero;"></path>
            <path d="M322.23,151.741C318.214,151.741 315.307,148.612 315.307,143.76C315.307,139.014 318.214,135.884 322.23,135.884C326.353,135.884 329.154,139.014 329.154,143.76C329.154,148.612 326.3,151.741 322.23,151.741ZM323.393,130.512C319.429,130.512 316.469,132.337 315.201,134.528L315.201,131.085L309.282,131.085L309.282,164.429L315.36,164.429L315.36,153.619C316.681,155.549 319.482,157.114 323.182,157.114C330.581,157.114 335.285,151.376 335.285,143.76C335.285,136.249 331.004,130.512 323.393,130.512Z" style="fill:white;fill-rule:nonzero;"></path>
        </g>
    </g>
</svg>