<svg width="91" height="24" viewBox="0 0 91 24" fill="none" xmlns="http://www.w3.org/2000/svg">
<mask id="mask0_651_157" style="mask-type:luminance" maskUnits="userSpaceOnUse" x="0" y="0" width="91" height="24">
<path d="M90.9474 0H0V24H90.9474V0Z" fill="white"></path>
</mask>
<g mask="url(#mask0_651_157)">
<path d="M10.3628 0.0390625C4.64931 0.0390625 0 4.85296 0 10.7687C0 16.6843 4.64931 21.4983 10.3628 21.4983H20.7255V10.7687C20.7255 4.85296 16.0762 0.0390625 10.3628 0.0390625ZM10.3628 16.4887C7.29966 16.4887 4.81589 13.917 4.81589 10.7455C4.81589 7.57398 7.29966 5.00227 10.3628 5.00227C13.4258 5.00227 15.9096 7.57398 15.9096 10.7455C15.9096 13.917 13.4258 16.4887 10.3628 16.4887Z" fill="white"></path>
<path d="M80.5662 0C74.8329 0 70.1836 4.81133 70.1836 10.7502C70.1836 16.689 74.8304 21.5004 80.5662 21.5004C86.302 21.5004 90.9489 16.689 90.9489 10.7502C90.9489 4.81133 86.2996 0 80.5662 0ZM80.5662 16.496C77.5007 16.496 75.0144 13.9217 75.0144 10.7476C75.0144 7.57353 77.5007 4.99925 80.5662 4.99925C83.6318 4.99925 86.1181 7.57353 86.1181 10.7476C86.1181 13.9217 83.6318 16.496 80.5662 16.496Z" fill="white"></path>
<path d="M44.1324 10.7502C44.1324 4.8139 39.4856 0 33.7498 0C28.014 0 23.3672 4.81133 23.3672 10.7502C23.3672 16.689 28.014 21.5004 33.7498 21.5004C35.5971 21.5004 37.3275 20.9984 38.8292 20.1257L42.5735 24.0026L46.1637 20.2853L42.5163 16.5088C43.5382 14.8433 44.1324 12.8714 44.1324 10.7528V10.7502ZM33.7498 16.4985C30.6842 16.4985 28.198 13.9243 28.198 10.7502C28.198 7.5761 30.6842 5.00182 33.7498 5.00182C36.8153 5.00182 39.3016 7.5761 39.3016 10.7502C39.3016 13.9243 36.8153 16.4985 33.7498 16.4985Z" fill="white"></path>
<path d="M67.5152 10.7502C67.5152 4.8139 62.8684 0 57.1326 0C51.3968 0 46.75 4.81133 46.75 10.7502C46.75 16.689 51.3968 21.5004 57.1326 21.5004C58.9799 21.5004 60.7103 20.9984 62.212 20.1257L65.9563 24.0026L69.5465 20.2853L65.8991 16.5088C66.921 14.8433 67.5152 12.8714 67.5152 10.7528V10.7502ZM57.1326 16.4985C54.067 16.4985 51.5808 13.9243 51.5808 10.7502C51.5808 7.5761 54.067 5.00182 57.1326 5.00182C60.1981 5.00182 62.6844 7.5761 62.6844 10.7502C62.6844 13.9243 60.1981 16.4985 57.1326 16.4985Z" fill="white"></path>
</g>
</svg>