<?xml version="1.0"?>
<svg xmlns="http://www.w3.org/2000/svg" version="1.1" viewBox="0 0 747.1 154.8">
  <defs>
    
  </defs>
  
  <g>
    <g id="Layer_1">
      <g>
        <g>
          <path class="cls-1" d="M186,40.8h-19.4v-10.8h51v10.8h-19.4v66.7h-12.2V40.8Z"></path>
          <path class="cls-1" d="M368.8,89.3h12.2c.9,8,5.6,10.8,13.9,10.8s11.1-2.7,11.1-7.5-.7-6.3-12.7-8.4c-17.3-2.9-21.8-8.5-21.8-17.4s8.8-16.3,21.7-16.3,24.9,7.1,25.1,18.7h-12.2c-.2-7.9-5.9-9.9-12.9-9.9s-9.5,2.6-9.5,7.2,1.6,6.3,13.1,8.3c16.8,2.8,21.4,7.9,21.4,17.2s-9.9,17-23.5,17-25.1-5.8-25.8-19.6Z"></path>
          <path class="cls-1" d="M455.1,79.6c0-16.8,11-29.3,27.5-29.3s26.9,12.3,26.9,29.8v3.2h-42.3c1.1,9.7,6.3,16,15.4,16s12-3.2,14.4-8.9h12.1c-3.5,11.1-13.7,18.4-26.6,18.4s-27.5-12.5-27.5-29.3ZM497.8,74.4c0-8.8-6.6-14.6-15.1-14.6s-15.3,5.9-15.3,14.6h30.5Z"></path>
        </g>
        <path class="cls-1" d="M714.3,107.5v-8c-3.9,5.7-10,9.3-18.3,9.3-16.5,0-26-12.5-26-29.3s9.6-29.3,26-29.3,15.9,5,18.3,10.9v-31.2h12.2v77.5h-12.2ZM698.2,99.1c10.9,0,16-8.1,16-19.6s-5.2-19.6-16-19.6-16,8.1-16,19.6,5.2,19.6,16,19.6Z"></path>
        <path class="cls-1" d="M338.8,60.3c-4.3,0-13.9,2.5-13.9,16.2v31h-12.2v-57.2h12.2v11c2-6,8.7-11,16.9-11,13.6,0,20.9,9.7,20.9,21.2v36h-12.2v-34.9c0-7.2-3.5-12.4-11.7-12.4Z"></path>
        <g>
          <path class="cls-1" d="M101.3,108.8L0,154.8v-69.8S121.1,30.1,121.1,30.1v47.4c0,13.6-7.8,25.9-19.9,31.3Z"></path>
          <path class="cls-1" d="M0,69.7h26.7c23.4,0,41.2-24.3,30.9-49.7C52.5,7.6,40.3,0,27.3,0H0s0,69.7,0,69.7Z"></path>
        </g>
        <path class="cls-1" d="M292.2,101c-4.8,5.9-11,7.9-17.8,7.9-12.4,0-20.3-5.9-20.3-16.7s7.3-15,20.8-17.4l17.4-3.4v-3.4c0-4.9-4.1-7.6-11.7-7.6s-13,2.4-13,8.8h-12.1c.3-13.4,12.5-18.8,25.2-18.8s23.8,6.3,23.8,16.5v40.8h-12.2v-6.6ZM276.7,99.8c7.6,0,15.6-4.2,15.6-14.2v-5.6l-15,3.1c-6.8,1.4-11.1,3-11.1,8.7s3.2,8,10.4,8Z"></path>
        <path class="cls-1" d="M457,30.1v10.8h-13.6c-1.5,0-2.7,1.2-2.7,2.7v6.7h9.9v10.8h-9.9v46.5h-11.4v-46.5h-5v-10.8h5v-10.8c0-5.2,4.2-9.5,9.5-9.5h18.3Z"></path>
        <path class="cls-1" d="M552.2,79.6c0-16.8,11-29.3,27.5-29.3s26.9,12.3,26.9,29.8v3.2h-42.3c1.1,9.7,6.3,16,15.4,16s12-3.2,14.4-8.9h12.1c-3.5,11.1-13.7,18.4-26.6,18.4s-27.5-12.5-27.5-29.3ZM594.9,74.4c0-8.8-6.6-14.6-15.1-14.6s-15.3,5.9-15.3,14.6h30.5Z"></path>
        <path class="cls-1" d="M747,50.3v57.2h-12.2v-57.2h12.2Z"></path>
        <path class="cls-1" d="M747.1,30.1v10.8h-12.2v-10.8h12.2Z"></path>
        <path class="cls-1" d="M640.1,60.3c-4.3,0-13.9,2.5-13.9,16.2v31h-12.2v-57.2h12.2v11c2-6,8.7-11,16.9-11,13.6,0,20.9,9.7,20.9,21.2v36h-12.2v-34.9c0-7.2-3.5-12.4-11.7-12.4Z"></path>
        <path class="cls-1" d="M217.5,50.3h12.2v11c4.1-7.9,10-10.3,16.9-10.3h4.3v10.7h-4.6c-9.5,0-16.6,4-16.6,17.4v28.5h-12.2v-57.2Z"></path>
        <path class="cls-1" d="M515.6,50.3h12.2v11c4.1-7.9,10-10.3,16.9-10.3h4.3v10.7h-4.6c-9.5,0-16.6,4-16.6,17.4v28.5h-12.2v-57.2Z"></path>
      </g>
    </g>
  </g>
</svg>