<?xml version="1.0"?>

<svg width="100%" height="100%" viewBox="0 0 400 267" version="1.1" xmlns="http://www.w3.org/2000/svg" xmlns:xlink="http://www.w3.org/1999/xlink" xml:space="preserve" xmlns:serif="http://www.serif.com/" style="fill-rule:evenodd;clip-rule:evenodd;stroke-linejoin:round;stroke-miterlimit:2;">
    <g transform="matrix(5.55556,0,0,5.55556,0,0)">
        <g>
            <path d="M39.245,15.417L39.245,5.774C39.245,5.774 39.314,3.404 38.999,2.07C38.696,0.787 37.456,0.058 37.362,0.004C37.36,0.003 37.362,0 37.363,0L41.59,0C42.166,0 42.737,0.139 43.203,0.604C43.917,1.314 44.203,2.13 44.203,3.143L44.203,21.101C44.203,24.212 44.255,27.737 44.327,30.578C44.346,31.323 44.364,32.688 44.77,33.634C45.233,34.709 46.093,35.045 46.187,35.078C46.189,35.078 46.188,35.081 46.187,35.081C45.963,35.081 41.554,35.098 41.39,35.057C39.248,34.549 39.337,32.199 39.383,30.767C39.383,30.765 39.38,30.765 39.379,30.767C37.758,34.042 35.672,35.426 32.292,35.426C26.684,35.426 23.255,31.221 23.255,24.475C23.255,17.312 26.963,12.691 32.709,12.691C35.857,12.691 37.942,13.937 39.239,16.566C39.239,16.568 39.243,16.567 39.243,16.566L39.243,15.418L39.245,15.417ZM28.957,24.521C28.957,30.02 30.718,33.07 33.869,33.07C37.252,33.07 39.245,29.42 39.245,23.366C39.245,18.191 37.391,15.14 34.286,15.14C30.81,15.14 28.957,18.422 28.957,24.521Z" style="fill:white;fill-rule:nonzero;"></path>
            <path d="M19.881,34.188C19.023,33.064 18.951,31.269 18.951,29.484L18.951,20.995C18.951,20.708 18.943,20.423 18.93,20.14C18.93,20.107 18.933,20.075 18.933,20.042C18.933,19.24 18.823,18.464 18.619,17.725C17.942,15.267 16.216,13.239 13.946,12.147C12.782,11.587 11.477,11.273 10.097,11.273C9.484,11.273 8.888,11.34 8.311,11.458C8.426,11.451 8.541,11.446 8.657,11.446C11.586,11.446 13.96,13.78 13.96,16.66C13.96,18.785 13.08,20.444 10.737,21.364C10.069,21.607 6.73,22.489 5.908,22.694C4.399,23.07 3.439,23.505 3.311,23.577C3.235,23.619 2.997,23.76 2.953,23.788C2.858,23.847 2.765,23.909 2.673,23.973C2.659,23.983 2.643,23.994 2.628,24.004C2.131,24.353 1.702,24.752 1.343,25.198C1.332,25.211 1.322,25.225 1.311,25.238C1.247,25.319 1.185,25.401 1.125,25.486C1.114,25.5 1.105,25.516 1.094,25.531C0.922,25.778 0.771,26.039 0.638,26.312C0.619,26.351 0.599,26.392 0.581,26.432C0.548,26.503 0.518,26.575 0.489,26.646C0.467,26.7 0.446,26.755 0.424,26.81C0.4,26.877 0.374,26.944 0.351,27.013C0.327,27.084 0.305,27.157 0.283,27.231C0.266,27.287 0.248,27.341 0.233,27.397C0.199,27.523 0.17,27.651 0.143,27.781C0.133,27.832 0.125,27.883 0.116,27.933C0.099,28.025 0.084,28.117 0.071,28.211C0.063,28.265 0.057,28.319 0.051,28.373C0.04,28.472 0.03,28.571 0.022,28.672C0.018,28.719 0.014,28.767 0.011,28.815C0.003,28.964 -0.003,29.113 -0.003,29.266L-0.003,29.268C-0.003,33.065 2.703,35.513 6.861,35.513C7.907,35.513 8.853,35.36 9.738,35.037C10.181,34.875 10.608,34.67 11.025,34.421C11.303,34.256 11.577,34.069 11.846,33.863C12.52,33.346 13.172,32.7 13.825,31.916C13.827,31.94 14.072,35.085 16.467,35.085L20.938,35.085C20.938,35.085 20.94,35.084 20.939,35.083C20.817,35.008 20.344,34.801 19.877,34.19L19.881,34.188ZM11.196,32.416C10.646,32.662 10.038,32.799 9.399,32.799C6.958,32.799 4.961,30.808 4.961,28.374C4.961,26.24 6.456,24.707 8.52,24.037C8.97,23.873 11.424,22.971 13.829,22.322L13.836,28.374L13.836,28.662C13.836,30.383 12.731,31.854 11.195,32.416L11.196,32.416Z" style="fill:white;fill-rule:nonzero;"></path>
            <path d="M5.909,18.672C7.716,18.672 9.182,17.217 9.182,15.423C9.182,13.628 7.716,12.174 5.909,12.174C4.101,12.174 2.636,13.628 2.636,15.423C2.636,17.217 4.101,18.672 5.909,18.672Z" style="fill:white;fill-rule:nonzero;"></path>
            <path d="M68.624,32.196C67.192,31.34 66.094,31.149 61.415,31.054C57.882,31.006 56.832,30.911 56.163,30.673C55.304,30.34 54.875,29.817 54.875,29.055C54.875,27.96 55.733,27.293 57.214,27.245C60.89,27.103 61.654,26.96 63.325,26.341C66.046,25.294 67.717,22.819 67.717,19.82C67.717,17.976 67.268,16.86 65.886,15.465C65.883,15.462 65.885,15.457 65.889,15.457L68.711,15.457C68.816,15.457 68.908,15.457 68.984,15.449C69.79,15.382 70.809,15.091 70.832,14.105C70.851,13.277 70.858,12.662 70.868,12.184C70.868,12.18 70.863,12.178 70.861,12.18C69.661,13.125 68.765,13.25 67.574,13.25C66.382,13.25 65.282,13.202 64.327,13.107C61.527,12.789 59.585,12.631 58.503,12.631C52.345,12.631 48.812,15.296 48.812,20.057C48.812,23.528 50.813,25.812 54.672,26.861C54.676,26.862 54.676,26.868 54.672,26.869C51.387,28.199 50.387,29.247 50.387,31.291C50.387,33.048 51.385,34.237 53.429,34.905C53.433,34.907 53.433,34.912 53.429,34.913C49.715,35.914 47.905,37.865 47.905,40.907C47.905,45.287 52.058,48 58.79,48C66.285,48 71.25,43.859 71.25,37.67C71.25,35.195 70.343,33.291 68.625,32.196L68.624,32.196ZM54.302,20.342C54.302,16.201 55.639,14.249 58.551,14.249C61.129,14.249 62.371,16.011 62.371,19.723C62.371,23.626 61.034,25.578 58.313,25.578C55.592,25.578 54.303,23.817 54.303,20.342L54.302,20.342ZM59.774,46.286C55.477,46.286 51.915,43.716 51.915,40.145C51.915,38.336 52.965,36.822 54.301,36.061C55.447,35.442 57.004,35.147 59.391,35.147C65.05,35.147 66.665,38.037 66.665,40.601C66.665,44.361 63.974,46.285 59.773,46.285L59.774,46.286Z" style="fill:white;fill-rule:nonzero;"></path>
        </g>
    </g>
</svg>