<svg width="133" height="28" viewBox="0 0 133 28" fill="none" xmlns="http://www.w3.org/2000/svg">
<mask id="mask0_124_229" style="mask-type:luminance" maskUnits="userSpaceOnUse" x="0" y="0" width="133" height="28">
<path d="M133 0H0V28H133V0Z" fill="white"></path>
</mask>
<g mask="url(#mask0_124_229)">
<path d="M19.4843 14.0172C19.3077 12.6396 18.9395 11.3398 18.1944 10.2288C15.7495 6.59156 11.2562 5.73953 7.54969 7.4331C6.14099 8.07699 5.03511 9.08175 4.01533 10.4055C4.01533 9.36775 3.99752 8.47829 4.02275 7.59033C4.03463 7.19801 3.97228 7.01533 3.51657 7.0318C2.50421 7.06923 1.49036 7.06624 0.477994 7.03329C0.0608766 7.01832 1.60644e-05 7.18004 1.60644e-05 7.54391C0.0104069 14.1954 0.0118913 20.8454 1.60644e-05 27.4969C-0.00146834 27.8847 0.0994711 28.0045 0.489869 27.994C1.45325 27.9656 2.41959 27.9521 3.38149 27.997C3.90103 28.0225 4.03759 27.8787 4.02869 27.3501C3.99603 25.1429 4.01533 22.9373 4.01533 20.7211C4.24244 20.7211 4.31963 20.8693 4.39385 20.9742C5.31567 22.2829 6.57444 23.1439 8.02916 23.7234C9.70208 24.3883 11.4373 24.4077 13.1786 24.0903C16.1607 23.5467 18.414 21.3036 19.1562 18.4945C19.5466 17.0225 19.6817 15.5565 19.4843 14.0172ZM12.9915 20.3303C11.1509 21.4533 9.21074 21.362 7.26617 20.2464C6.00443 19.5232 5.04996 18.442 4.24244 17.2276C3.87579 16.6766 4.08806 16.0776 4.02869 15.5146C3.68282 13.7462 4.86441 12.7025 5.91091 11.6798C7.0925 10.5267 8.54573 9.89784 10.2528 9.87238C12.8846 9.83195 14.853 11.5405 15.4185 14.0412C15.9767 16.4969 15.1736 18.9991 12.9915 20.3303Z" fill="white"></path>
<path d="M25.1055 3.23032C25.0833 8.7887 25.0922 14.3471 25.0922 19.9055C25.0922 21.1273 25.0744 22.3492 25.1011 23.5696C25.1115 23.9904 24.9942 24.1207 24.5726 24.1057C23.6582 24.0727 22.7409 24.0668 21.828 24.1072C21.3411 24.1296 21.2179 23.9844 21.2209 23.4962C21.2431 20.1061 21.2327 16.716 21.2327 13.3273C21.2327 9.93871 21.2476 6.5965 21.2179 3.23182C21.2134 2.67628 21.3396 2.50558 21.9007 2.54301C22.7379 2.59692 23.584 2.59692 24.4227 2.54301C24.9808 2.50708 25.1085 2.67179 25.1055 3.23032Z" fill="white"></path>
<path d="M46.6216 7.48593C46.6216 7.11458 46.5044 7.02922 46.1585 7.03671C45.1209 7.05768 44.0803 7.06067 43.0427 7.03521C42.6716 7.02623 42.59 7.1565 42.5989 7.5024C42.6197 8.41882 42.6063 9.33523 42.6063 10.2531C41.9161 9.45802 41.1783 8.80814 40.356 8.23164C38.2659 6.77167 35.9651 6.44074 33.5188 6.89895C30.9953 7.37213 29.1101 8.80515 28.0013 11.1007C26.9518 13.2749 26.7766 15.6124 27.3155 17.9887C28.4407 22.9407 32.9785 25.1314 37.4258 24.1745C39.6108 23.7043 41.1813 22.3642 42.6063 20.6481C42.6063 21.6379 42.6152 22.5334 42.6004 23.4288C42.5959 23.7672 42.6123 23.9754 43.0605 23.9589C44.0967 23.92 45.1372 23.929 46.1763 23.9544C46.5459 23.9634 46.6201 23.8331 46.6201 23.4872C46.6098 18.1535 46.6098 12.8197 46.6201 7.48593H46.6216ZM40.35 19.6658C39.2085 20.6496 37.828 21.1767 36.2382 21.1228C34.1304 21.0539 32.6222 20.1435 31.6841 18.2523C30.5812 16.0271 31.0057 13.0353 32.7009 11.4017C34.5698 9.60327 37.3085 9.49096 39.4015 10.7802C40.5771 11.5035 41.49 12.4933 42.2812 13.6343C42.7043 14.2437 42.5425 14.8562 42.5989 15.4671C42.8898 17.4317 41.5954 18.5922 40.35 19.6658Z" fill="white"></path>
<path d="M67.2983 7.19398C66.4166 9.27987 65.5631 11.2789 64.7273 13.2854C63.568 16.0706 62.4236 18.8618 61.2687 21.647C61.0698 22.1276 60.8664 22.6113 60.1836 22.4541C59.7516 22.3537 59.6596 22.5769 59.6655 22.9826C59.6893 24.4531 59.6507 25.9251 59.6878 27.3955C59.7012 27.9046 59.5364 28.0109 59.0703 27.9945C58.0817 27.96 57.0901 27.9525 56.103 27.9975C55.5923 28.0214 55.5003 27.8387 55.5092 27.3731C55.5374 25.9281 55.5062 24.4816 55.527 23.0366C55.5329 22.6203 55.4899 22.3477 54.9867 22.4496C54.4657 22.5544 54.2237 22.3642 54.0114 21.8281C52.9174 19.0669 51.7596 16.3327 50.6151 13.5939C49.7839 11.6038 48.9541 9.61379 48.0842 7.64021C47.8482 7.10414 47.9848 7.02328 48.4969 7.03526C49.6339 7.06221 50.7725 7.05772 51.9095 7.03526C52.2791 7.02927 52.4929 7.13858 52.6295 7.49346C53.9565 10.9315 55.2954 14.3651 56.624 17.8031C56.7457 18.1206 56.7695 18.5054 57.2667 18.4126C57.7135 18.3302 58.2435 18.6551 58.5166 17.9139C59.3033 15.7786 60.1762 13.6778 61.0045 11.5589C61.5255 10.2217 62.0228 8.87407 62.5408 7.53689C62.6165 7.34223 62.7071 7.17751 63.0069 7.182C64.4082 7.20746 65.8095 7.19398 67.2983 7.19398Z" fill="white"></path>
<path d="M84.8738 19.2639C84.3483 22.5597 81.9213 23.4581 79.5819 23.9448C78.1613 24.2413 76.7199 24.3236 75.2816 24.2338C72.9659 24.0871 70.6933 23.6992 68.7532 22.2917C67.4528 21.3498 66.5503 20.1264 66.4954 18.4149C66.485 18.0585 66.5815 17.9462 66.9437 17.9537C68.0065 17.9776 69.0708 17.9597 70.1351 17.9657C70.2851 17.9672 70.4528 17.8938 70.5181 18.1723C70.8922 19.7401 72.0871 20.4019 73.4839 20.8002C75.427 21.3543 77.3761 21.2914 79.3236 20.8062C80.1578 20.5981 80.8303 19.8928 80.9089 19.2085C81.0084 18.3385 80.5586 17.9297 79.8416 17.6811C78.5829 17.2439 77.2469 17.19 75.9302 17.0627C74.0391 16.8785 72.1272 16.8246 70.3073 16.1703C68.8125 15.6342 67.573 14.7522 67.1248 13.1799C66.534 11.1135 67.0505 9.09052 69.3811 7.8342C71.2084 6.8489 73.1871 6.48953 75.2192 6.60183C77.3612 6.50151 79.3978 6.84741 81.2726 7.8342C82.6813 8.57691 83.8673 9.59066 84.3899 11.2109C84.4878 11.5148 84.3899 11.8413 84.5917 12.1333C84.706 12.298 84.5561 12.4327 84.326 12.4312C83.1637 12.4238 82.0015 12.4238 80.8392 12.4297C80.6625 12.4312 80.517 12.3354 80.4814 12.2141C79.9945 10.5909 78.6333 10.0893 77.2306 9.77484C75.5295 9.3915 73.8105 9.51579 72.1376 10.0414C71.627 10.2031 71.2529 10.5969 70.9901 11.0282C70.6027 11.6661 71.1 12.5915 71.9788 12.861C72.6616 13.0691 73.3682 13.2368 74.0762 13.3117C75.4567 13.457 76.8535 13.4644 78.2296 13.6396C80.0005 13.8658 81.7521 14.0994 83.3226 15.179C84.4225 15.9337 85.04 18.2262 84.8738 19.2639Z" fill="white"></path>
<path d="M90.5586 23.4898C90.5586 23.9421 90.3656 23.954 90.0331 23.9495C89.1172 23.9376 88.2013 23.9181 87.2884 23.957C86.8104 23.9765 86.6709 23.8477 86.6754 23.3506C86.7021 20.7092 86.6887 18.0662 86.6887 15.4248C86.6887 12.7834 86.7006 10.2408 86.6768 7.64876C86.6724 7.17109 86.7793 7.00787 87.278 7.03033C88.2162 7.07376 89.1573 7.05878 90.0969 7.03632C90.4472 7.02734 90.5556 7.12317 90.5556 7.48854C90.5437 12.8223 90.5407 18.1561 90.5586 23.4898Z" fill="white"></path>
<path d="M91.2704 2.57123C91.2556 3.96232 90.1067 5.11981 88.7291 5.10634C87.313 5.09286 85.9889 3.85001 86.2442 2.50983C86.2442 0.939051 87.1779 0.0555807 88.7544 0.001674C90.2848 -0.0522327 91.2838 1.20409 91.2704 2.57123Z" fill="white"></path>
<path d="M111.635 3.05746C111.635 2.59775 111.468 2.53636 111.081 2.54834C110.242 2.57379 109.398 2.59625 108.56 2.54235C107.944 2.50341 107.729 2.63369 107.746 3.32699C107.799 5.68391 107.765 8.04382 107.765 10.4726C106.767 9.34807 105.831 8.32683 104.579 7.66947C102.607 6.63327 100.49 6.45807 98.3773 6.93574C96.02 7.46882 94.2432 8.85991 93.1225 11.0881C92.2823 12.7592 92.0997 14.5201 92.1843 16.338C92.2868 18.5721 93.0304 20.5711 94.6395 22.1269C95.8835 23.3294 97.3842 24.0391 99.1581 24.2817C101.339 24.5797 103.313 24.2038 105.161 23.0493C106.148 22.4324 106.977 21.6313 107.765 20.5172C107.765 21.6388 107.786 22.5507 107.756 23.4611C107.743 23.8579 107.866 23.9643 108.25 23.9538C109.214 23.9268 110.178 23.9268 111.142 23.9553C111.534 23.9658 111.633 23.846 111.633 23.4566C111.621 16.6569 111.62 9.85718 111.633 3.05746H111.635ZM105.335 19.7161C103.66 21.0847 101.774 21.4861 99.6583 20.8242C97.6514 20.1983 96.3258 18.0765 96.1818 16.1029C96.0571 14.4003 96.4995 12.87 97.5831 11.5777C98.2941 10.7302 99.2813 10.269 100.362 10.0339C103.321 9.38999 106.12 11.5043 107.272 13.5154C107.778 14.3973 107.765 14.4048 107.778 15.5967C107.854 17.5015 106.629 18.6574 105.335 19.7161Z" fill="white"></path>
<path d="M131.642 16.4866C132.331 16.4925 132.458 16.2814 132.418 15.663C132.371 14.9307 132.249 14.215 132.108 13.5007C131.551 10.6856 129.821 8.80036 127.309 7.66682C125.538 6.8687 123.657 6.59168 121.673 6.86721C119.14 7.22059 117.006 8.17744 115.37 10.2124C113.461 12.5858 113.152 15.2677 113.871 18.1067C114.476 20.4981 116.031 22.2171 118.198 23.2773C120.319 24.3165 122.596 24.4617 124.928 24.1069C127.262 23.7535 129.135 22.6214 130.63 20.8425C131.136 20.2406 131.6 19.5607 131.804 18.7102C130.514 18.7102 129.277 18.7087 128.042 18.7132C127.887 18.7132 127.772 18.7162 127.628 18.8944C125.462 21.5867 121.863 21.5388 119.235 20.1402C117.836 19.3945 117.303 17.9944 117.028 16.4671H117.846C122.445 16.4671 127.043 16.4476 131.642 16.4866ZM122.218 9.88748C125.039 9.61944 127.566 11.3594 128.237 13.5981H117.297C117.919 11.2846 120.102 10.0881 122.218 9.88748Z" fill="white"></path>
<path d="M19.4843 14.0172C19.3077 12.6396 18.9395 11.3398 18.1944 10.2288C15.7495 6.59156 11.2562 5.73953 7.54969 7.4331C6.14099 8.07699 5.03511 9.08175 4.01533 10.4055C4.01533 9.36775 3.99752 8.47829 4.02275 7.59033C4.03463 7.19801 3.97228 7.01533 3.51657 7.0318C2.50421 7.06923 1.49036 7.06624 0.477994 7.03329C0.0608766 7.01832 1.60644e-05 7.18004 1.60644e-05 7.54391C0.0104069 14.1954 0.0118913 20.8454 1.60644e-05 27.4969C-0.00146834 27.8847 0.0994711 28.0045 0.489869 27.994C1.45325 27.9656 2.41959 27.9521 3.38149 27.997C3.90103 28.0225 4.03759 27.8787 4.02869 27.3501C3.99603 25.1429 4.01533 22.9373 4.01533 20.7211C4.24244 20.7211 4.31963 20.8693 4.39385 20.9742C5.31567 22.2829 6.57444 23.1439 8.02916 23.7234C9.70208 24.3883 11.4373 24.4077 13.1786 24.0903C16.1607 23.5467 18.414 21.3036 19.1562 18.4945C19.5466 17.0225 19.6817 15.5565 19.4843 14.0172ZM12.9915 20.3303C11.1509 21.4533 9.21074 21.362 7.26617 20.2464C6.00443 19.5232 5.04996 18.442 4.24244 17.2276C3.87579 16.6766 4.08806 16.0776 4.02869 15.5146C3.68282 13.7462 4.86441 12.7025 5.91091 11.6798C7.0925 10.5267 8.54573 9.89784 10.2528 9.87238C12.8846 9.83195 14.853 11.5405 15.4185 14.0412C15.9767 16.4969 15.1736 18.9991 12.9915 20.3303Z" fill="white"></path>
<path d="M111.635 3.05746C111.635 2.59775 111.468 2.53636 111.081 2.54834C110.242 2.57379 109.398 2.59625 108.56 2.54235C107.944 2.50341 107.729 2.63369 107.746 3.32699C107.799 5.68391 107.765 8.04382 107.765 10.4726C106.767 9.34807 105.831 8.32683 104.579 7.66947C102.607 6.63327 100.49 6.45807 98.3773 6.93574C96.02 7.46882 94.2432 8.85991 93.1225 11.0881C92.2823 12.7592 92.0997 14.5201 92.1843 16.338C92.2868 18.5721 93.0304 20.5711 94.6395 22.1269C95.8835 23.3294 97.3842 24.0391 99.1581 24.2817C101.339 24.5797 103.313 24.2038 105.161 23.0493C106.148 22.4324 106.977 21.6313 107.765 20.5172C107.765 21.6388 107.786 22.5507 107.756 23.4611C107.743 23.8579 107.866 23.9643 108.25 23.9538C109.214 23.9268 110.178 23.9268 111.142 23.9553C111.534 23.9658 111.633 23.846 111.633 23.4566C111.621 16.6569 111.62 9.85718 111.633 3.05746H111.635ZM105.335 19.7161C103.66 21.0847 101.774 21.4861 99.6583 20.8242C97.6514 20.1983 96.3258 18.0765 96.1818 16.1029C96.0571 14.4003 96.4995 12.87 97.5831 11.5777C98.2941 10.7302 99.2813 10.269 100.362 10.0339C103.321 9.38999 106.12 11.5043 107.272 13.5154C107.778 14.3973 107.765 14.4048 107.778 15.5967C107.854 17.5015 106.629 18.6574 105.335 19.7161Z" fill="white"></path>
<path d="M46.6216 7.48593C46.6216 7.11458 46.5044 7.02922 46.1585 7.03671C45.1209 7.05768 44.0803 7.06067 43.0427 7.03521C42.6716 7.02623 42.59 7.1565 42.5989 7.5024C42.6197 8.41882 42.6063 9.33523 42.6063 10.2531C41.9161 9.45802 41.1783 8.80814 40.356 8.23164C38.2659 6.77167 35.9651 6.44074 33.5188 6.89895C30.9953 7.37213 29.1101 8.80515 28.0013 11.1007C26.9518 13.2749 26.7766 15.6124 27.3155 17.9887C28.4407 22.9407 32.9785 25.1314 37.4258 24.1745C39.6108 23.7043 41.1813 22.3642 42.6063 20.6481C42.6063 21.6379 42.6152 22.5334 42.6004 23.4288C42.5959 23.7672 42.6123 23.9754 43.0605 23.9589C44.0967 23.92 45.1372 23.929 46.1763 23.9544C46.5459 23.9634 46.6201 23.8331 46.6201 23.4872C46.6098 18.1535 46.6098 12.8197 46.6201 7.48593H46.6216ZM40.35 19.6658C39.2085 20.6496 37.828 21.1767 36.2382 21.1228C34.1304 21.0539 32.6222 20.1435 31.6841 18.2523C30.5812 16.0271 31.0057 13.0353 32.7009 11.4017C34.5698 9.60327 37.3085 9.49096 39.4015 10.7802C40.5771 11.5035 41.49 12.4933 42.2812 13.6343C42.7043 14.2437 42.5425 14.8562 42.5989 15.4671C42.8898 17.4317 41.5954 18.5922 40.35 19.6658Z" fill="white"></path>
<path d="M84.8738 19.2639C84.3483 22.5597 81.9213 23.4581 79.5819 23.9448C78.1613 24.2413 76.7199 24.3236 75.2816 24.2338C72.9659 24.0871 70.6933 23.6992 68.7532 22.2917C67.4528 21.3498 66.5503 20.1264 66.4954 18.4149C66.485 18.0585 66.5815 17.9462 66.9437 17.9537C68.0065 17.9776 69.0708 17.9597 70.1351 17.9657C70.2851 17.9672 70.4528 17.8938 70.5181 18.1723C70.8922 19.7401 72.0871 20.4019 73.4839 20.8002C75.427 21.3543 77.3761 21.2914 79.3236 20.8062C80.1578 20.5981 80.8303 19.8928 80.9089 19.2085C81.0084 18.3385 80.5586 17.9297 79.8416 17.6811C78.5829 17.2439 77.2469 17.19 75.9302 17.0627C74.0391 16.8785 72.1272 16.8246 70.3073 16.1703C68.8125 15.6342 67.573 14.7522 67.1248 13.1799C66.534 11.1135 67.0505 9.09052 69.3811 7.8342C71.2084 6.8489 73.1871 6.48953 75.2192 6.60183C77.3612 6.50151 79.3978 6.84741 81.2726 7.8342C82.6813 8.57691 83.8673 9.59066 84.3899 11.2109C84.4878 11.5148 84.3899 11.8413 84.5917 12.1333C84.706 12.298 84.5561 12.4327 84.326 12.4312C83.1637 12.4238 82.0015 12.4238 80.8392 12.4297C80.6625 12.4312 80.517 12.3354 80.4814 12.2141C79.9945 10.5909 78.6333 10.0893 77.2306 9.77484C75.5295 9.3915 73.8105 9.51579 72.1376 10.0414C71.627 10.2031 71.2529 10.5969 70.9901 11.0282C70.6027 11.6661 71.1 12.5915 71.9788 12.861C72.6616 13.0691 73.3682 13.2368 74.0762 13.3117C75.4567 13.457 76.8535 13.4644 78.2296 13.6396C80.0005 13.8658 81.7521 14.0994 83.3226 15.179C84.4225 15.9337 85.04 18.2262 84.8738 19.2639Z" fill="white"></path>
<path d="M131.642 16.4866C132.331 16.4925 132.458 16.2814 132.418 15.663C132.371 14.9307 132.249 14.215 132.108 13.5007C131.551 10.6856 129.821 8.80036 127.309 7.66682C125.538 6.8687 123.657 6.59168 121.673 6.86721C119.14 7.22059 117.006 8.17744 115.37 10.2124C113.461 12.5858 113.152 15.2677 113.871 18.1067C114.476 20.4981 116.031 22.2171 118.198 23.2773C120.319 24.3165 122.596 24.4617 124.928 24.1069C127.262 23.7535 129.135 22.6214 130.63 20.8425C131.136 20.2406 131.6 19.5607 131.804 18.7102C130.514 18.7102 129.277 18.7087 128.042 18.7132C127.887 18.7132 127.772 18.7162 127.628 18.8944C125.462 21.5867 121.863 21.5388 119.235 20.1402C117.836 19.3945 117.303 17.9944 117.028 16.4671H117.846C122.445 16.4671 127.043 16.4476 131.642 16.4866ZM122.218 9.88748C125.039 9.61944 127.566 11.3594 128.237 13.5981H117.297C117.919 11.2846 120.102 10.0881 122.218 9.88748Z" fill="white"></path>
<path d="M67.2983 7.19398C66.4166 9.27987 65.5631 11.2789 64.7273 13.2854C63.568 16.0706 62.4236 18.8618 61.2687 21.647C61.0698 22.1276 60.8664 22.6113 60.1836 22.4541C59.7516 22.3537 59.6596 22.5769 59.6655 22.9826C59.6893 24.4531 59.6507 25.9251 59.6878 27.3955C59.7012 27.9046 59.5364 28.0109 59.0703 27.9945C58.0817 27.96 57.0901 27.9525 56.103 27.9975C55.5923 28.0214 55.5003 27.8387 55.5092 27.3731C55.5374 25.9281 55.5062 24.4816 55.527 23.0366C55.5329 22.6203 55.4899 22.3477 54.9867 22.4496C54.4657 22.5544 54.2237 22.3642 54.0114 21.8281C52.9174 19.0669 51.7596 16.3327 50.6151 13.5939C49.7839 11.6038 48.9541 9.61379 48.0842 7.64021C47.8482 7.10414 47.9848 7.02328 48.4969 7.03526C49.6339 7.06221 50.7725 7.05772 51.9095 7.03526C52.2791 7.02927 52.4929 7.13858 52.6295 7.49346C53.9565 10.9315 55.2954 14.3651 56.624 17.8031C56.7457 18.1206 56.7695 18.5054 57.2667 18.4126C57.7135 18.3302 58.2435 18.6551 58.5166 17.9139C59.3033 15.7786 60.1762 13.6778 61.0045 11.5589C61.5255 10.2217 62.0228 8.87407 62.5408 7.53689C62.6165 7.34223 62.7071 7.17751 63.0069 7.182C64.4082 7.20746 65.8095 7.19398 67.2983 7.19398Z" fill="white"></path>
<path d="M25.1011 23.5696C25.1115 23.9904 24.9942 24.1207 24.5726 24.1057C23.6582 24.0727 22.7409 24.0668 21.828 24.1072C21.3411 24.1296 21.2179 23.9844 21.2209 23.4962C21.2431 20.1061 21.2327 16.716 21.2327 13.3273C21.2327 9.93871 21.2476 6.5965 21.2179 3.23182C21.2134 2.67628 21.3396 2.50558 21.9007 2.54301C22.7379 2.59692 23.584 2.59692 24.4227 2.54301C24.9808 2.50708 25.1085 2.67179 25.1055 3.23032C25.0833 8.7887 25.0922 14.3471 25.0922 19.9055C25.0922 21.1273 25.0744 22.3492 25.1011 23.5696Z" fill="white"></path>
<path d="M90.5586 23.4898C90.5586 23.9421 90.3656 23.954 90.0331 23.9495C89.1172 23.9376 88.2013 23.9181 87.2884 23.957C86.8104 23.9765 86.6709 23.8477 86.6754 23.3506C86.7021 20.7092 86.6887 18.0662 86.6887 15.4248C86.6887 12.7834 86.7006 10.2408 86.6768 7.64876C86.6724 7.17109 86.7793 7.00787 87.278 7.03033C88.2162 7.07376 89.1573 7.05878 90.0969 7.03632C90.4472 7.02734 90.5556 7.12317 90.5556 7.48854C90.5437 12.8223 90.5407 18.1561 90.5586 23.4898Z" fill="white"></path>
<path d="M91.2704 2.57123C91.2556 3.96232 90.1067 5.11981 88.7291 5.10634C87.313 5.09286 85.9889 3.85001 86.2442 2.50983C86.2442 0.939051 87.1779 0.0555807 88.7544 0.001674C90.2848 -0.0522327 91.2838 1.20409 91.2704 2.57123Z" fill="white"></path>
</g>
</svg>