<svg width="133" height="28" viewBox="0 0 133 28" fill="none" xmlns="http://www.w3.org/2000/svg">
<mask id="mask0_124_351" style="mask-type:luminance" maskUnits="userSpaceOnUse" x="0" y="0" width="133" height="28">
<path d="M132.621 0H0.0986328V28H132.621V0Z" fill="white"></path>
</mask>
<g mask="url(#mask0_124_351)">
<path d="M77.7861 16.7998V27.7042H80.0992V23.1476H83.8905V21.165H80.0992V18.7824H85.4905V16.7998H77.7861Z" fill="white"></path>
<path d="M87.5078 16.7998V27.7042H89.8382V23.1476H93.6121V21.165H89.8382V18.7824H95.2295V16.7998H87.5078Z" fill="white"></path>
<path d="M99.5776 16.7998H97.2471V27.7042H99.5776V16.7998Z" fill="white"></path>
<path d="M113.752 16.7998V27.7042H121.456V25.6868H116.065V23.1476H121.352V21.165H116.065V18.7824H121.456V16.7998H113.752Z" fill="white"></path>
<path d="M127.821 21.0262C126.569 20.7305 125.647 20.5044 125.647 19.774C125.647 19.1131 126.204 18.6609 127.247 18.6609C128.308 18.6609 129.491 19.0436 130.378 19.8609L131.665 18.1566C130.586 17.1653 129.143 16.6436 127.421 16.6436C124.847 16.6436 123.282 18.1218 123.282 19.9305C123.282 22.3653 125.578 22.8523 127.352 23.2696C128.604 23.5653 129.56 23.8436 129.56 24.6609C129.56 25.287 128.934 25.8957 127.665 25.8957C126.169 25.8957 124.969 25.2175 124.204 24.4175L122.934 26.1914C123.96 27.2175 125.473 27.9305 127.56 27.9305C130.499 27.9305 131.925 26.4175 131.925 24.4349C131.908 21.9827 129.63 21.4436 127.821 21.0262Z" fill="white"></path>
<path d="M107.124 25.8086C105.177 25.8086 103.577 24.226 103.577 22.2608C103.577 20.3129 105.159 18.7129 107.124 18.7129C108.307 18.7129 109.351 19.3042 110.011 20.1912L111.89 19.2695C110.898 17.6868 109.142 16.626 107.124 16.626C104.029 16.626 101.49 19.1477 101.49 22.2608C101.49 25.3738 104.011 27.8782 107.124 27.8782C109.107 27.8782 110.846 26.8521 111.855 25.3042L109.959 24.3999C109.298 25.2695 108.272 25.8086 107.124 25.8086Z" fill="white"></path>
<path d="M70.0471 27.8606C66.9515 27.8606 64.4297 25.3388 64.4297 22.2258C64.4297 19.1301 66.9515 16.6084 70.0471 16.6084C73.1428 16.6084 75.6819 19.1301 75.6819 22.2258C75.6645 25.3214 73.1428 27.8606 70.0471 27.8606ZM70.0471 18.678C68.0993 18.678 66.4993 20.2606 66.4993 22.2258C66.4993 24.1736 68.0819 25.7736 70.0471 25.7736C71.995 25.7736 73.595 24.191 73.595 22.2258C73.5776 20.278 71.995 18.678 70.0471 18.678Z" fill="white"></path>
<path d="M79.4382 0.15625L75.2295 11.078H77.786L78.4817 9.19973H83.3512L84.0469 11.078H86.586L82.3599 0.15625H79.4382ZM79.0904 7.18234L80.8991 2.17364L82.7078 7.18234H79.0904Z" fill="white"></path>
<path d="M93.8731 6.95625L91.2296 0.15625H87.96V11.078H90.2905V3.21712L93.3687 11.078H94.3774L97.4557 3.21712V11.078H99.7861V0.15625H96.5166L93.8731 6.95625Z" fill="white"></path>
<path d="M128.43 4.40019C127.178 4.10453 126.256 3.87845 126.256 3.14801C126.256 2.48714 126.812 2.03497 127.856 2.03497C128.917 2.03497 130.099 2.41758 130.986 3.23497L132.273 1.53062C131.195 0.539318 129.752 0.0175781 128.03 0.0175781C125.456 0.0175781 123.891 1.49584 123.891 3.30453C123.891 5.73932 126.186 6.22627 127.96 6.64367C129.212 6.93932 130.169 7.21758 130.169 8.03497C130.169 8.66106 129.543 9.26975 128.273 9.26975C126.778 9.26975 125.578 8.59149 124.812 7.79149L123.543 9.5654C124.569 10.5915 126.082 11.3045 128.169 11.3045C131.108 11.3045 132.534 9.79149 132.534 7.80888C132.517 5.33932 130.238 4.80019 128.43 4.40019Z" fill="white"></path>
<path d="M107.039 0.15625H106.36H102.343V11.0606H104.673V7.16495V5.16495V2.15625H106.795C107.647 2.17364 108.343 2.88668 108.343 3.73886C108.343 4.59103 107.647 5.30408 106.778 5.30408H106.012V7.32147H106.76C108.778 7.32147 110.412 5.72147 110.412 3.73886C110.412 1.84321 108.917 0.29538 107.039 0.15625Z" fill="white"></path>
<path d="M117.003 11.27C114.377 11.27 112.238 9.13087 112.238 6.50478V0.313477H114.481V6.50478C114.481 7.89609 115.611 9.04391 117.003 9.04391C118.394 9.04391 119.524 7.91348 119.524 6.50478V0.313477H121.768V6.50478C121.768 9.13087 119.629 11.27 117.003 11.27Z" fill="white"></path>
<path d="M70.0471 9.18261C68.0993 9.18261 66.4993 7.6 66.4993 5.63478C66.4993 3.68696 68.0819 2.08696 70.0471 2.08696C71.2297 2.08696 72.2732 2.67826 72.9341 3.56522L74.8123 2.64348C73.821 1.06087 72.0645 0 70.0471 0C66.9515 0 64.4297 2.52174 64.4297 5.63478C64.4297 8.73044 66.9515 11.2522 70.0471 11.2522C72.0297 11.2522 73.7689 10.2261 74.7776 8.67826L72.8819 7.77391C72.221 8.62609 71.195 9.18261 70.0471 9.18261Z" fill="white"></path>
<path d="M26.5685 27.6872C12.0468 27.6872 0.220703 15.3568 0.220703 0.208984H11.9425C11.9425 8.90464 18.499 15.9655 26.5685 15.9655C34.6381 15.9655 41.1946 8.90464 41.1946 0.208984H52.9164C52.9337 15.3568 41.1077 27.6872 26.5685 27.6872Z" fill="white"></path>
</g>
</svg>