<svg width="149" height="36" viewBox="0 0 149 36" fill="none" xmlns="http://www.w3.org/2000/svg">
<mask id="mask0_124_301" style="mask-type:luminance" maskUnits="userSpaceOnUse" x="0" y="0" width="149" height="36">
<path d="M148.021 0H0.92041V36H148.021V0Z" fill="white"></path>
</mask>
<g mask="url(#mask0_124_301)">
<path d="M25.1792 12.122H29.981C31.1666 12.122 32.2255 11.8583 33.129 11.3411C34.0346 10.8219 34.7521 10.0962 35.2611 9.18244C35.7701 8.27278 36.0277 7.22616 36.0277 6.07325C36.0277 4.92033 35.7517 3.82465 35.2059 2.91908C34.6622 2.01556 33.8956 1.29396 32.9328 0.776787C31.972 0.261655 30.8498 0 29.6008 0L24.613 0.0245301H21.6816V15.4458H25.1792V12.122ZM32.5076 6.07325C32.5076 6.89705 32.2643 7.57572 31.7819 8.08676C31.2975 8.6019 30.6903 8.85129 29.9299 8.85129H25.1792V3.27068H29.5619C30.1302 3.25229 30.6617 3.37085 31.0992 3.61206C31.5387 3.85327 31.8862 4.18647 32.1335 4.5994C32.3809 5.01437 32.5076 5.50906 32.5076 6.07325Z" fill="white"></path>
<path d="M3.50221 30.9798C4.29943 31.4847 5.20296 31.8731 6.1903 32.1327L8.77618 32.795C9.8412 33.071 10.6998 33.4655 11.3294 33.9664C11.8077 34.3486 12.1041 34.829 12.2084 35.3952L12.2227 35.4688H16.0678L16.0616 35.3728C15.9799 34.1217 15.4525 32.9606 14.4897 31.9242C13.441 30.7938 11.9487 29.9863 10.0558 29.5223L7.46995 28.8907C6.60527 28.674 5.91433 28.351 5.41556 27.932C4.927 27.5211 4.67965 26.9323 4.67965 26.1821C4.67965 25.252 4.9965 24.5182 5.62406 23.9969C6.25571 23.4716 7.14289 23.2058 8.25696 23.2058C9.37104 23.2058 10.25 23.4634 10.9716 23.9703C11.6953 24.4793 12.2104 25.1314 12.5027 25.9123L12.5334 25.9941L16.0719 24.8575L16.0412 24.7696C15.7182 23.86 15.2153 23.0361 14.5489 22.3186C13.8805 21.6011 13.026 21.0267 12.006 20.6118C10.9859 20.1988 9.78601 19.9883 8.43889 19.9883C6.04107 19.9883 4.17065 20.5463 2.87669 21.6482C1.57864 22.7541 0.92041 24.3199 0.92041 26.3027C0.92041 27.3575 1.1514 28.2836 1.6093 29.0542C2.06719 29.8269 2.70293 30.4749 3.50221 30.9798Z" fill="white"></path>
<path d="M4.418 12.1198H12.5743V15.4559H16.0719V0.0244141H12.5743V8.85117H4.418V0.0244141H0.92041V15.4559H4.418V12.1198Z" fill="white"></path>
<path d="M32.0718 31.8296C31.7999 32.0034 31.5076 32.1546 31.1949 32.2793C30.4896 32.5573 29.721 32.6963 28.8911 32.6963C27.9262 32.6963 27.0758 32.4981 26.3359 32.1035C25.5959 31.707 25.0255 31.1469 24.6208 30.4191C24.4286 30.0716 24.2835 29.6975 24.1813 29.2969H36.2194C36.2869 28.9759 36.338 28.6816 36.3707 28.4138C36.4034 28.146 36.4218 27.8843 36.4218 27.6268C36.4218 26.1509 36.0907 24.8344 35.4304 23.6795C34.7681 22.5245 33.8605 21.6149 32.7076 20.9525C31.5526 20.2902 30.2239 19.957 28.7235 19.957C27.223 19.957 25.7696 20.3107 24.5043 21.0159C23.2369 21.7212 22.2352 22.6799 21.4952 23.888C20.7553 25.0961 20.3853 26.4616 20.3853 27.9804C20.3853 29.4992 20.7593 30.8688 21.5116 32.0872C22.2618 33.3076 23.2819 34.2642 24.5717 34.9592C25.8596 35.6543 27.313 36.0018 28.9258 36.0018C30.181 36.0018 31.3686 35.7769 32.4888 35.3272C33.0387 35.1064 33.5477 34.8346 34.0158 34.5116L32.0718 31.8296ZM24.586 25.3945C24.9663 24.6995 25.5039 24.1599 26.2009 23.7735C26.896 23.3892 27.7136 23.195 28.656 23.195C29.5984 23.195 30.3097 23.3667 30.925 23.7081C31.5403 24.0515 32.0187 24.5421 32.3539 25.184C32.542 25.5438 32.683 25.9506 32.7791 26.4044H24.1936C24.2876 26.0405 24.4184 25.7032 24.5881 25.3925L24.586 25.3945Z" fill="white"></path>
<path d="M53.5857 10.2623H49.4217V6.45605H47.7925V15.4463H49.4217V11.634H53.5857V15.4463H55.2149V6.45605H53.5857V10.2623Z" fill="white"></path>
<path d="M63.5343 14.0829H59.2865V11.5788H63.197V10.2337H59.2865V7.81952H63.5098V6.45605H57.6553V15.4463H63.5343V14.0829Z" fill="white"></path>
<path d="M68.1089 15.4463H69.7197V7.81952H72.4957V6.45605H65.3267V7.81952H68.1089V15.4463Z" fill="white"></path>
<path d="M84.0935 6.84045C83.6254 6.58288 83.0449 6.4541 82.3519 6.4541H78.979V15.4464H80.6082V12.4108H82.3273C83.0183 12.4108 83.6029 12.2841 84.0772 12.0265C84.5514 11.771 84.9112 11.4194 85.1544 10.9697C85.3977 10.522 85.5203 10.0089 85.5203 9.43451C85.5203 8.8601 85.3997 8.35314 85.1585 7.90138C84.9173 7.45166 84.5616 7.09597 84.0935 6.83841V6.84045ZM83.6765 10.2828C83.5539 10.5302 83.3617 10.7244 83.1041 10.8613C82.8445 11.0004 82.5113 11.0699 82.1045 11.0699H80.6082V7.81757H82.0984C82.5093 7.81757 82.8445 7.88503 83.1041 8.01994C83.3637 8.15486 83.5539 8.34292 83.6765 8.58618C83.7992 8.82943 83.8605 9.11153 83.8605 9.43451C83.8605 9.75749 83.7992 10.0355 83.6765 10.2828Z" fill="white"></path>
<path d="M93.483 14.0829H89.2352V11.5788H93.1457V10.2337H89.2352V7.81952H93.4585V6.45605H87.604V15.4463H93.483V14.0829Z" fill="white"></path>
<path d="M97.6453 12.1532H99.3072L101.067 15.4484H102.89L100.942 11.8793C101 11.8568 101.061 11.8363 101.116 11.8098C101.59 11.5808 101.95 11.2537 102.193 10.8326C102.437 10.4095 102.559 9.91071 102.559 9.3363C102.559 8.76189 102.439 8.26311 102.197 7.82974C101.956 7.39638 101.601 7.06113 101.132 6.81787C100.664 6.57666 100.084 6.45605 99.391 6.45605H96.0181V15.4484H97.6474V12.1532H97.6453ZM99.1355 7.81952C99.5464 7.81952 99.8796 7.8788 100.137 7.99736C100.395 8.11593 100.585 8.28968 100.709 8.51658C100.834 8.74349 100.897 9.01741 100.897 9.33426C100.897 9.6511 100.836 9.92093 100.713 10.1397C100.591 10.3584 100.399 10.524 100.141 10.6384C99.8837 10.7529 99.5484 10.8081 99.1416 10.8081H97.6453V7.82156H99.1355V7.81952Z" fill="white"></path>
<path d="M109.971 15.2478C110.478 15.0229 110.867 14.7101 111.137 14.3095C111.407 13.9088 111.541 13.4468 111.541 12.9235C111.541 12.5331 111.468 12.1938 111.321 11.9035C111.173 11.6132 110.975 11.3679 110.724 11.1635C110.472 10.9611 110.19 10.7915 109.875 10.6565C109.561 10.5216 109.236 10.4133 108.898 10.3336L108.06 10.123C107.815 10.0596 107.574 9.97787 107.339 9.88179C107.104 9.78571 106.909 9.65693 106.76 9.49749C106.609 9.33804 106.533 9.13362 106.533 8.88423C106.533 8.65937 106.597 8.45701 106.725 8.28121C106.854 8.10541 107.04 7.9664 107.283 7.86419C107.527 7.76402 107.817 7.71292 108.156 7.71292C108.643 7.71292 109.037 7.81922 109.336 8.02977C109.634 8.24032 109.806 8.54082 109.845 8.92513H111.421C111.409 8.41817 111.265 7.97049 110.992 7.58005C110.718 7.18961 110.339 6.88298 109.857 6.66221C109.375 6.44144 108.812 6.33105 108.173 6.33105C107.533 6.33105 106.983 6.44144 106.486 6.66221C105.989 6.88298 105.597 7.19165 105.313 7.58822C105.027 7.98479 104.884 8.44882 104.884 8.97826C104.884 9.62627 105.096 10.1434 105.523 10.5318C105.951 10.9202 106.533 11.2085 107.273 11.3986L108.293 11.6643C108.618 11.744 108.902 11.8381 109.144 11.9423C109.385 12.0466 109.575 12.1754 109.71 12.3266C109.847 12.4779 109.914 12.67 109.914 12.9031C109.914 13.1607 109.839 13.3855 109.685 13.5797C109.532 13.7719 109.321 13.9231 109.052 14.0315C108.782 14.1398 108.471 14.195 108.115 14.195C107.76 14.195 107.471 14.1439 107.196 14.0376C106.92 13.9333 106.697 13.778 106.529 13.5695C106.359 13.363 106.263 13.1014 106.239 12.7886H104.634C104.659 13.3835 104.816 13.8904 105.104 14.3074C105.393 14.7244 105.797 15.0413 106.31 15.258C106.826 15.4747 107.433 15.583 108.134 15.583C108.835 15.583 109.463 15.4706 109.969 15.2457L109.971 15.2478Z" fill="white"></path>
<path d="M119.444 15.0187C120.063 14.6528 120.554 14.1254 120.916 13.4365C121.278 12.7476 121.46 11.9218 121.46 10.9569C121.46 9.99208 121.278 9.15806 120.916 8.46713C120.554 7.7762 120.063 7.2488 119.444 6.88289C118.825 6.51698 118.119 6.33301 117.332 6.33301C116.545 6.33301 115.842 6.51698 115.217 6.88289C114.591 7.2488 114.099 7.7762 113.739 8.46713C113.379 9.15806 113.199 9.98595 113.199 10.9569C113.199 11.9279 113.379 12.7497 113.739 13.4365C114.099 14.1254 114.591 14.6508 115.217 15.0187C115.842 15.3846 116.547 15.5686 117.332 15.5686C118.117 15.5686 118.825 15.3846 119.444 15.0187ZM115.153 12.6802C114.941 12.2121 114.834 11.6376 114.834 10.9569C114.834 10.2762 114.941 9.69568 115.153 9.22552C115.366 8.75536 115.66 8.39967 116.038 8.15641C116.415 7.9152 116.846 7.79459 117.332 7.79459C117.819 7.79459 118.25 7.9152 118.624 8.15641C118.998 8.39763 119.293 8.75331 119.505 9.22552C119.718 9.69568 119.824 10.2742 119.824 10.9569C119.824 11.6397 119.718 12.2121 119.505 12.6802C119.293 13.1483 118.998 13.504 118.624 13.7452C118.25 13.9864 117.819 14.107 117.332 14.107C116.846 14.107 116.415 13.9864 116.038 13.7452C115.662 13.504 115.368 13.1483 115.153 12.6802Z" fill="white"></path>
<path d="M125.068 9.32199H125.145L129.377 15.4463H130.836V6.45605H129.207V12.5804H129.129L124.898 6.45605H123.438V15.4463H125.068V9.32199Z" fill="white"></path>
<path d="M135.633 6.45605L132.459 15.4484H134.203L134.945 13.2284H138.32L139.066 15.4484H140.803L137.635 6.45605H135.631H135.633ZM135.382 11.9242L136.592 8.304H136.664L137.88 11.9242H135.38H135.382Z" fill="white"></path>
<path d="M144.056 14.0829V6.45605H142.427V15.4463H148.022V14.0829H144.056Z" fill="white"></path>
<path d="M53.554 24.7856C53.3026 24.5832 53.0205 24.4135 52.7057 24.2786C52.3909 24.1437 52.0659 24.0353 51.7286 23.9556L50.8905 23.7451C50.6452 23.6817 50.404 23.5999 50.1689 23.5039C49.9338 23.4078 49.7396 23.279 49.5904 23.1196C49.4391 22.9601 49.3635 22.7557 49.3635 22.5063C49.3635 22.2814 49.4268 22.0791 49.5556 21.9033C49.6844 21.7275 49.8704 21.5885 50.1137 21.4863C50.3569 21.3861 50.6472 21.335 50.9865 21.335C51.4731 21.335 51.8676 21.4413 52.166 21.6518C52.4645 21.8624 52.6362 22.1629 52.675 22.5472H54.2511C54.2388 22.0402 54.0957 21.5926 53.8218 21.2021C53.5479 20.8117 53.1697 20.5051 52.6873 20.2843C52.2049 20.0635 51.6427 19.9531 51.0029 19.9531C50.3631 19.9531 49.8132 20.0635 49.3165 20.2843C48.8197 20.5051 48.4272 20.8137 48.1431 21.2103C47.8569 21.6069 47.7138 22.0709 47.7138 22.6003C47.7138 23.2483 47.9264 23.7655 48.3536 24.1539C48.7809 24.5423 49.3635 24.8305 50.1035 25.0206L51.1235 25.2864C51.4485 25.3661 51.7327 25.4601 51.9739 25.5644C52.2151 25.6686 52.4052 25.7974 52.5401 25.9487C52.6771 26.1 52.7445 26.2921 52.7445 26.5252C52.7445 26.7827 52.6689 27.0076 52.5156 27.2018C52.3623 27.3939 52.1517 27.5452 51.8819 27.6535C51.6121 27.7619 51.3014 27.8171 50.9457 27.8171C50.59 27.8171 50.3018 27.766 50.0258 27.6597C49.7498 27.5554 49.527 27.4001 49.3594 27.1916C49.1897 26.9851 49.0936 26.7234 49.0691 26.4107H47.4644C47.489 27.0055 47.6464 27.5125 47.9346 27.9295C48.2228 28.3465 48.6276 28.6634 49.1407 28.88C49.6558 29.0967 50.2629 29.2051 50.9641 29.2051C51.6652 29.2051 52.2928 29.0926 52.7997 28.8678C53.3067 28.6429 53.6951 28.3302 53.9649 27.9295C54.2347 27.5288 54.3697 27.0669 54.3697 26.5436C54.3697 26.1531 54.2961 25.8138 54.1489 25.5235C54.0017 25.2332 53.8034 24.9879 53.552 24.7835L53.554 24.7856Z" fill="white"></path>
<path d="M62.2781 23.8845H58.1142V20.0762H56.4849V29.0685H58.1142V25.2541H62.2781V29.0685H63.9073V20.0762H62.2781V23.8845Z" fill="white"></path>
<path d="M72.2538 20.503C71.6344 20.1371 70.9292 19.9531 70.1422 19.9531C69.3552 19.9531 68.652 20.1371 68.0264 20.503C67.4009 20.8689 66.9083 21.3963 66.5485 22.0872C66.1887 22.7782 66.0088 23.6061 66.0088 24.5771C66.0088 25.548 66.1887 26.3698 66.5485 27.0566C66.9083 27.7455 67.4009 28.2709 68.0264 28.6388C68.652 29.0047 69.3572 29.1887 70.1422 29.1887C70.9271 29.1887 71.6344 29.0047 72.2538 28.6388C72.8732 28.2729 73.3638 27.7455 73.7256 27.0566C74.0874 26.3678 74.2694 25.5419 74.2694 24.5771C74.2694 23.6122 74.0874 22.7782 73.7256 22.0872C73.3638 21.3963 72.8732 20.8689 72.2538 20.503ZM72.3131 26.3003C72.1005 26.7684 71.8061 27.1241 71.432 27.3653C71.058 27.6065 70.6266 27.7271 70.1401 27.7271C69.6536 27.7271 69.2223 27.6065 68.8462 27.3653C68.47 27.1241 68.1757 26.7684 67.961 26.3003C67.7484 25.8322 67.6421 25.2578 67.6421 24.5771C67.6421 23.8963 67.7484 23.3158 67.961 22.8456C68.1736 22.3755 68.468 22.0198 68.8462 21.7765C69.2223 21.5353 69.6536 21.4147 70.1401 21.4147C70.6266 21.4147 71.058 21.5353 71.432 21.7765C71.8061 22.0177 72.1005 22.3734 72.3131 22.8456C72.5257 23.3158 72.632 23.8943 72.632 24.5771C72.632 25.2598 72.5257 25.8322 72.3131 26.3003Z" fill="white"></path>
<path d="M81.363 20.4625C80.8949 20.205 80.3144 20.0762 79.6214 20.0762H76.2485V29.0685H77.8777V26.0329H79.5969C80.2878 26.0329 80.8724 25.9062 81.3467 25.6486C81.8209 25.3931 82.1807 25.0415 82.4239 24.5918C82.6672 24.1441 82.7899 23.631 82.7899 23.0566C82.7899 22.4822 82.6693 21.9752 82.428 21.5234C82.1868 21.0737 81.8311 20.718 81.363 20.4605V20.4625ZM80.946 23.9049C80.8234 24.1523 80.6312 24.3465 80.3736 24.4834C80.114 24.6224 79.7808 24.6919 79.374 24.6919H77.8777V21.4396H79.3679C79.7788 21.4396 80.114 21.5071 80.3736 21.642C80.6332 21.7769 80.8234 21.965 80.946 22.2082C81.0687 22.4515 81.13 22.7336 81.13 23.0566C81.13 23.3796 81.0687 23.6576 80.946 23.9049Z" fill="white"></path>
<path d="M90.9398 25.1989H94.8503V23.8538H90.9398V21.4396H95.163V20.0762H89.3105V29.0685H95.1876V27.703H90.9398V25.1989Z" fill="white"></path>
<path d="M100.895 27.149H100.798L98.4641 20.0762H96.6714L99.846 29.0685H101.849L105.018 20.0762H103.231L100.895 27.149Z" fill="white"></path>
<path d="M108.267 25.1989H112.178V23.8538H108.267V21.4396H112.493V20.0762H106.638V29.0685H112.517V27.703H108.267V25.1989Z" fill="white"></path>
<path d="M120.82 26.2005H120.74L116.511 20.0762H115.049V29.0685H116.678V22.9421H116.758L120.988 29.0685H122.449V20.0762H120.82V26.2005Z" fill="white"></path>
<path d="M124.265 21.4396H127.047V29.0685H128.657V21.4396H131.433V20.0762H124.265V21.4396Z" fill="white"></path>
</g>
</svg>