<svg width="92" height="24" viewBox="0 0 92 24" fill="none" xmlns="http://www.w3.org/2000/svg">
<mask id="mask0_124_370" style="mask-type:luminance" maskUnits="userSpaceOnUse" x="0" y="0" width="92" height="24">
<path d="M91.4023 0H0.402344V24H91.4023V0Z" fill="white"></path>
</mask>
<g mask="url(#mask0_124_370)">
<path d="M0.931641 4.81543H7.19732V6.66689H3.23415V7.58277H7.02412V9.18802H3.23415V11.5516H0.931641V4.81543Z" fill="white"></path>
<path d="M5.68997 15.4323L7.44232 14.4574C6.83103 13.2657 5.55752 12.4385 4.09044 12.4385C2.22602 12.4385 0.68761 13.7483 0.402344 15.4619H2.47053C2.71504 14.8316 3.34671 14.3786 4.08025 14.3786C4.81379 14.3786 5.43526 14.8217 5.68997 15.4323Z" fill="white"></path>
<path d="M5.68997 16.6633L7.44232 17.6383C6.83103 18.8299 5.55752 19.6572 4.09044 19.6572C2.2362 19.6572 0.697798 18.3474 0.402344 16.6338H2.47053C2.71504 17.2641 3.34671 17.7171 4.08025 17.7171C4.81379 17.7171 5.43526 17.2739 5.68997 16.6633Z" fill="white"></path>
<path d="M91.4024 0H0.402344V1.60525H91.4024V0Z" fill="white"></path>
<path d="M91.4024 22.3945H0.402344V23.9998H91.4024V22.3945Z" fill="white"></path>
<path d="M10.5195 13.0091V4.81543H14.9921V12.9008C14.9921 14.8507 15.9294 16.0522 18.0384 16.0522C20.1473 16.0522 21.0948 14.8507 21.0948 12.9008V4.81543H25.5572V12.9894C25.5572 17.559 22.9694 19.6566 18.0384 19.6566C13.1073 19.6566 10.5195 17.5491 10.5195 13.0091Z" fill="white"></path>
<path d="M37.5478 19.1741L35.388 15.2742H31.3229V19.1741H26.8809V4.81543H35.1434C39.2289 4.81543 41.4804 6.55856 41.4804 10.1827C41.4804 12.1523 40.5431 13.5508 39.1983 14.3879L41.9185 19.1741H37.5478ZM31.3229 12.044H34.8582C36.2743 12.044 37.0384 11.394 37.0384 10.2122C37.0384 9.03045 36.2743 8.38047 34.8582 8.38047H31.3229V12.044Z" fill="white"></path>
<path d="M57.8429 15.1265C57.8429 17.4506 56.1619 19.1839 51.5976 19.1839H42.9785V4.81543H51.7708C56.1721 4.81543 57.4354 6.66689 57.4354 8.57743C57.4354 10.1728 56.5898 10.9213 55.4691 11.4728V11.7288C56.9565 12.4084 57.8429 13.4523 57.8429 15.1265ZM47.4205 8.11457V10.616H51.3327C52.647 10.616 53.1768 10.0842 53.1768 9.38498C53.1768 8.68576 52.647 8.11457 51.3327 8.11457H47.4205ZM53.35 14.4272C53.35 13.6788 52.7794 13.0584 51.4753 13.0584H47.4205V15.8848H51.4753C52.7794 15.8749 53.35 15.156 53.35 14.4272Z" fill="white"></path>
<path d="M69.8243 17.106H63.1409L62.3972 19.1741H57.8125L63.365 4.81543H69.59L75.1629 19.1839H70.5578L69.8243 17.106ZM68.673 13.9151L66.8698 8.85318H66.0955L64.282 13.9151H68.673Z" fill="white"></path>
<path d="M75.957 4.81543H81.0714L86.6647 13.2159H87.0722V4.81543H91.4022V19.1839H86.3998L80.6843 10.7834H80.2972V19.1839H75.9672V4.81543H75.957Z" fill="white"></path>
</g>
</svg>