<svg width="142" height="24" viewBox="0 0 142 24" fill="none" xmlns="http://www.w3.org/2000/svg">
<mask id="mask0_124_252" style="mask-type:luminance" maskUnits="userSpaceOnUse" x="0" y="0" width="142" height="24">
<path d="M142 0H0V24H142V0Z" fill="white"></path>
</mask>
<g mask="url(#mask0_124_252)">
<path d="M32.3099 0C31.8557 0 31.4803 0.150308 31.1837 0.450925C30.8871 0.751541 30.7388 1.13201 30.7388 1.59233C30.7388 2.05265 30.8871 2.43311 31.1837 2.73373C31.4803 3.03435 31.8557 3.18466 32.3099 3.18466C32.764 3.18466 33.1394 3.03435 33.436 2.73373C33.7326 2.43311 33.8809 2.05265 33.8809 1.59233C33.8809 1.13201 33.7326 0.751541 33.436 0.450925C33.1394 0.150308 32.764 0 32.3099 0Z" fill="white"></path>
<path d="M33.4985 4.72754H31.0933V18.523H33.4985V4.72754Z" fill="white"></path>
<path d="M46.1572 6.59469C45.7378 6.04982 45.2002 5.60594 44.5514 5.2701C43.7728 4.86614 42.8251 4.66182 41.736 4.66182C40.5033 4.66182 39.3794 4.96009 38.3946 5.54958C37.4075 6.13907 36.6266 6.97281 36.0705 8.02496C35.5167 9.07477 35.2363 10.3031 35.2363 11.6699C35.2363 13.1096 35.5167 14.3708 36.0705 15.4206C36.6266 16.4751 37.4052 17.2924 38.383 17.8467C39.3586 18.3986 40.487 18.6804 41.736 18.6804C43.5666 18.6804 45.0542 17.9852 46.1619 16.609L46.185 18.5231H48.5486V0.232422H46.1572V6.59469ZM45.6521 14.2111C45.3022 14.9321 44.797 15.4981 44.1529 15.8974C43.5087 16.2966 42.7672 16.4986 41.9446 16.4986C40.6724 16.4986 39.6343 16.0477 38.8557 15.1599C38.0748 14.2651 37.6786 13.0932 37.6786 11.6746C37.6786 10.2561 38.0748 9.08417 38.8557 8.18936C39.632 7.29926 40.6724 6.85068 41.9446 6.85068C42.7649 6.85068 43.5087 7.05736 44.1505 7.46366C44.7924 7.86996 45.2999 8.4524 45.6498 9.18985C46.002 9.93435 46.1827 10.7892 46.1827 11.7287C46.1827 12.6681 46.0043 13.4877 45.6498 14.2134L45.6521 14.2111Z" fill="white"></path>
<path d="M25.7381 5.30333C25.2329 5.611 24.7996 6.00555 24.4428 6.47996L24.452 4.72793H22.0352V18.5234H24.4405V11.4918C24.4405 10.2494 24.7116 9.19256 25.2445 8.35177C25.7659 7.52977 26.6487 7.11173 27.8722 7.11173H29.0749V4.72559H28.3426C27.2419 4.72559 26.3637 4.92052 25.7358 5.30098L25.7381 5.30333Z" fill="white"></path>
<path d="M58.6099 15.8761C58.4152 15.6624 58.3179 15.2866 58.3179 14.7582V8.16338H61.9397V5.72557H58.3179V2.30371H55.9126V14.7863C55.9126 16.0358 56.193 16.9682 56.7468 17.5577C57.303 18.1471 58.2368 18.4478 59.5252 18.4478H62.1158V16.1955H59.6549C59.1544 16.1955 58.8022 16.0898 58.6122 15.8808L58.6099 15.8761Z" fill="white"></path>
<path d="M72.8443 5.47253C71.8247 4.88069 70.6452 4.58008 69.336 4.58008C68.0268 4.58008 66.8474 4.88069 65.8278 5.47253C64.8082 6.06672 64.0018 6.90516 63.4341 7.96671C62.8687 9.02591 62.5791 10.2589 62.5791 11.6375C62.5791 13.0161 62.8664 14.2515 63.4341 15.3083C64.0018 16.3675 64.8059 17.2083 65.8278 17.8025C66.8474 18.3943 68.0268 18.695 69.336 18.695C70.6452 18.695 71.8247 18.3943 72.8443 17.8025C73.8638 17.2083 74.6679 16.3699 75.2356 15.3083C75.801 14.2491 76.0907 13.0161 76.0907 11.6375C76.0907 10.2589 75.8033 9.02357 75.2356 7.96671C74.6679 6.90751 73.8638 6.06672 72.8443 5.47253ZM73.0945 14.1552C72.7423 14.8903 72.2325 15.468 71.5837 15.879C70.9349 16.2877 70.1795 16.4967 69.336 16.4967C68.4926 16.4967 67.7348 16.29 67.0883 15.879C66.4418 15.468 65.9321 14.8903 65.5775 14.1552C65.2207 13.4154 65.0399 12.5699 65.0399 11.6375C65.0399 10.7051 65.2207 9.85966 65.5775 9.11986C65.9321 8.38476 66.4395 7.80466 67.0883 7.39601C67.7372 6.98736 68.4926 6.77834 69.336 6.77834C70.1795 6.77834 70.9372 6.98501 71.5837 7.39601C72.2302 7.80701 72.74 8.38476 73.0945 9.11986C73.4514 9.85966 73.6321 10.7051 73.6321 11.6375C73.6321 12.5699 73.4514 13.4154 73.0945 14.1552Z" fill="white"></path>
<path d="M92.9136 6.74076C92.4942 6.11604 91.952 5.61345 91.3009 5.24707C90.5176 4.80554 89.563 4.58008 88.4623 4.58008C87.2226 4.58008 86.0918 4.88069 85.0977 5.47488C84.1036 6.06907 83.3158 6.90751 82.7573 7.96906C82.1989 9.02591 81.9185 10.2613 81.9185 11.6399C81.9185 13.0866 82.2012 14.3572 82.7573 15.4164C83.3158 16.4779 84.099 17.2999 85.0861 17.8589C86.0686 18.4155 87.2064 18.6973 88.4623 18.6973C90.4296 18.6973 91.9242 17.9669 92.9136 16.5202V17.6639C92.9136 20.4517 91.5419 21.8045 88.7241 21.8045C87.6374 21.8045 86.736 21.579 86.0431 21.1351C85.3619 20.6959 84.9309 20.0642 84.7664 19.2539L84.7455 19.1506H82.2939L82.3124 19.2962C82.4909 20.7969 83.1466 21.9689 84.2635 22.7838C85.3711 23.5917 86.8194 24.0027 88.5689 24.0027C93.0503 24.0027 95.3235 21.8961 95.3235 17.7414V4.73743H92.9136L92.9183 6.74076H92.9136ZM92.4039 14.1928C92.0516 14.9185 91.5442 15.4892 90.8954 15.8908C90.2465 16.2924 89.4981 16.4944 88.6708 16.4944C87.3894 16.4944 86.3421 16.0411 85.5588 15.1463C84.7733 14.2468 84.3747 13.0654 84.3747 11.6375C84.3747 10.2096 84.7733 9.02826 85.5588 8.12876C86.3421 7.23396 87.3894 6.78068 88.6708 6.78068C89.4981 6.78068 90.2442 6.98736 90.893 7.39836C91.5418 7.80701 92.0493 8.3918 92.4015 9.13395C92.7584 9.88314 92.9391 10.7427 92.9391 11.6915C92.9391 12.6404 92.7584 13.4624 92.4015 14.1928H92.4039Z" fill="white"></path>
<path d="M101.46 5.3131C100.955 5.62076 100.519 6.01532 100.164 6.49208V4.7377H97.7563V18.5332H100.162V11.5016C100.162 10.2592 100.433 9.20232 100.966 8.36154C101.488 7.53954 102.373 7.12149 103.594 7.12149H104.796V4.73535H104.064C102.964 4.73535 102.085 4.93028 101.457 5.31075L101.46 5.3131Z" fill="white"></path>
<path d="M114.883 5.3645C113.926 4.84312 112.814 4.58008 111.577 4.58008C110.339 4.58008 109.188 4.876 108.212 5.46079C107.234 6.04558 106.465 6.88167 105.925 7.94088C105.385 8.99773 105.112 10.2401 105.112 11.6375C105.112 13.0349 105.394 14.2538 105.95 15.3201C106.509 16.391 107.306 17.2295 108.319 17.8143C109.327 18.3967 110.52 18.695 111.864 18.695C113.407 18.695 114.73 18.2417 115.796 17.3516C116.862 16.4615 117.539 15.2966 117.805 13.8921L117.835 13.7348H115.407L115.381 13.8311C115.164 14.6648 114.726 15.3224 114.081 15.7898C113.435 16.2572 112.638 16.4944 111.709 16.4944C110.511 16.4944 109.528 16.1068 108.789 15.3389C108.047 14.5709 107.656 13.5281 107.621 12.2458V12.1918H117.979L117.988 12.072C118.023 11.6469 118.042 11.3299 118.042 11.1279C118.004 9.80329 117.71 8.63136 117.161 7.64496C116.61 6.65386 115.845 5.88823 114.883 5.3645ZM107.767 10.125C107.892 9.15039 108.312 8.34483 109.016 7.72716C109.758 7.07895 110.627 6.75015 111.602 6.75015C112.7 6.75015 113.618 7.06016 114.334 7.67314C115.015 8.25793 115.421 9.08228 115.544 10.1227H107.767V10.125Z" fill="white"></path>
<path d="M131.396 15.4299V9.59134C131.396 7.98492 130.909 6.73313 129.952 5.87121C128.997 5.01163 127.635 4.57715 125.899 4.57715C124.273 4.57715 122.929 4.95996 121.909 5.7162C120.88 6.47714 120.275 7.55278 120.116 8.9126L120.097 9.05821H122.495L122.516 8.95253C122.648 8.29963 123.005 7.76885 123.575 7.37664C124.152 6.97738 124.898 6.77541 125.793 6.77541C126.805 6.77541 127.6 7.01496 128.159 7.48702C128.71 7.95439 128.988 8.61668 128.988 9.45512V10.2536H125.19C123.422 10.2536 122.053 10.6294 121.119 11.3692C120.174 12.1184 119.694 13.2058 119.694 14.6032C119.694 15.8597 120.164 16.8695 121.091 17.6C122.009 18.321 123.239 18.6873 124.745 18.6873C126.608 18.6873 128.077 18.0063 129.12 16.6629C129.19 17.2148 129.387 17.6493 129.711 17.9616C130.1 18.3374 130.747 18.53 131.632 18.53H132.941V16.2777H132.158C131.639 16.2777 131.398 16.0076 131.398 15.4275L131.396 15.4299ZM124.982 12.3509H128.988V12.884C128.988 13.9902 128.624 14.8897 127.904 15.5614C127.181 16.2331 126.17 16.576 124.901 16.576C124.043 16.576 123.357 16.381 122.859 15.9935C122.363 15.6107 122.125 15.1152 122.125 14.4787C122.125 13.0484 123.058 12.3556 124.979 12.3556L124.982 12.3509Z" fill="white"></path>
<path d="M137.07 15.9731C136.904 15.7899 136.809 15.4822 136.785 15.0524V11.5859H134.383L134.371 14.881C134.371 16.1304 134.651 17.0628 135.205 17.6523C135.759 18.2418 136.695 18.5424 137.983 18.5424H140.574V16.2901H138.113C137.613 16.2901 137.261 16.1844 137.068 15.9754L137.07 15.9731Z" fill="white"></path>
<path d="M139.195 5.72362V2.30176H136.788V5.72362H133.412V8.16378H136.788V11.5856H139.195V8.16378H142.572V5.72362H139.195Z" fill="white"></path>
<path d="M10.2778 13.3868L7.68252 16.0172C6.79735 15.6602 5.9145 15.0778 5.25641 14.4131C3.95183 13.0886 3.23118 11.3271 3.23118 9.45533C3.23118 7.58352 3.95183 5.82444 5.25641 4.4975C6.56331 3.17526 8.30121 2.44486 10.1481 2.44486C11.9949 2.44486 13.7304 3.17526 15.0397 4.4975C15.7603 5.23026 16.3211 6.13445 16.664 7.1232H19.1805L19.1712 7.09032C18.1076 2.91692 14.3978 0 10.1481 0C5.00615 0 0.821289 4.24151 0.821289 9.45298C0.821289 13.9575 4.00281 17.8773 8.38463 18.7721L8.41939 18.7791L11.9647 15.1858L12.0111 15.1389L10.3265 13.4314L10.2801 13.3845L10.2778 13.3868Z" fill="white"></path>
<path d="M10.3496 11.5805H15.5216L12.0111 15.1409L13.7351 16.8882L17.2155 13.363V18.5299H19.6555V11.5805V9.11682V9.10742H10.3496V11.5805Z" fill="white"></path>
</g>
</svg>