<svg width="35" height="38" viewBox="0 0 35 38" fill="none" xmlns="http://www.w3.org/2000/svg">
<mask id="mask0_124_271" style="mask-type:luminance" maskUnits="userSpaceOnUse" x="0" y="0" width="35" height="38">
<path d="M34.6329 0H0V38H34.6329V0Z" fill="white"></path>
</mask>
<g mask="url(#mask0_124_271)">
<path d="M23.978 24.9476L29.3061 30.169L23.978 35.3892L26.6421 37.9999L34.6331 30.169L26.6421 22.3369L23.978 24.9476Z" fill="white"></path>
<path d="M30.859 0V9.27357L24.3627 0H20.8456H20.5898V15.4623H24.3627V6.1977L30.859 15.4623H34.0769H34.633V0H30.859Z" fill="white"></path>
<path d="M7.84719 25.8096C9.42987 25.8096 10.815 26.6245 11.6018 27.8475L14.0443 25.4543C12.6089 23.6383 10.3708 22.4658 7.84833 22.4658C3.51365 22.4658 0 25.915 0 30.1689C0 34.4229 3.51365 37.8721 7.84719 37.8721C10.3674 37.8721 12.6032 36.7018 14.0386 34.8892L11.5972 32.496C10.8104 33.7156 9.42645 34.5283 7.84719 34.5283C5.39437 34.5283 3.40631 32.5767 3.40631 30.1689C3.40631 27.7612 5.39437 25.8096 7.84719 25.8096Z" fill="white"></path>
<path d="M12.3578 15.4623V12.4828H8.91721V2.98059H12.3578V0H1.70264V2.98059H5.1432V12.4828H1.70264V15.4623H12.3578Z" fill="white"></path>
</g>
</svg>