<svg width="127" height="48" viewBox="0 0 127 48" fill="none" xmlns="http://www.w3.org/2000/svg">
<g clip-path="url(#clip0_171_620)">
<path d="M67.3265 11.1852C60.2123 11.1852 54.4458 16.98 54.4458 24.1291C54.4458 31.2782 60.2123 37.073 67.3265 37.073C74.4407 37.073 80.2072 31.2782 80.2072 24.1291C80.2072 16.98 74.4407 11.1852 67.3265 11.1852ZM67.3265 31.3099C63.3804 31.3099 60.1808 28.0946 60.1808 24.1291C60.1808 20.1636 63.3804 16.9483 67.3265 16.9483C71.2726 16.9483 74.4722 20.1636 74.4722 24.1291C74.4722 28.0946 71.2726 31.3099 67.3265 31.3099Z" fill="white"></path>
<path d="M34.788 31.1272C34.6474 31.4268 34.2014 31.3269 34.2014 30.9956V12.2131H28.4785V31.0005C28.4785 33.4509 29.9207 35.5603 31.998 36.5225C35.0328 37.9206 38.6202 36.5858 40.0139 33.5362L45.7126 20.7409C45.778 20.5947 45.9937 20.641 45.9937 20.8018V35.0561C45.9913 39.0216 42.4476 42.2369 38.0772 42.2369C36.4459 42.2369 34.9334 41.7863 33.673 41.019L30.8976 46.0587C32.9846 47.2887 35.4473 48.0024 38.0845 48.0024C45.618 48.0024 51.7263 42.2076 51.7263 35.0586V12.2131H43.5819L34.7855 31.1272H34.788Z" fill="white"></path>
<path d="M123.981 31.154C123.227 31.59 122.366 31.8116 121.482 31.7848C119.133 31.7118 116.896 29.712 116.896 27.3371V16.9483H123.331V11.1828H116.896V5.56825H111.599V11.1998L100.435 11.2047V27.264C100.437 27.4223 100.221 27.4686 100.158 27.3249L94.4597 14.5271C93.066 11.4775 89.4761 10.1427 86.4438 11.5433C84.3665 12.503 82.9219 14.6148 82.9219 17.0628V35.8502H88.6447V17.2577C88.6447 16.9289 89.0883 16.8314 89.2265 17.1286L98.0277 35.8502H106.177V18.8531L103.452 17.226C103.317 17.1603 103.363 16.9532 103.515 16.9532H105.862H111.602V27.3273C111.602 32.7202 116.025 37.0023 121.486 37.0778C123.329 37.1071 125.134 36.6175 126.722 35.6675L123.983 31.1564L123.981 31.154Z" fill="white"></path>
<path d="M12.8807 11.1852C10.2362 11.1852 7.78078 11.9866 5.73499 13.358V0H0V24.1291C0 31.2782 5.7665 37.073 12.8807 37.073C19.9949 37.073 25.7614 31.2782 25.7614 24.1291C25.7614 16.98 19.9949 11.1852 12.8807 11.1852ZM12.6795 31.3099C8.84488 31.3099 5.73499 28.1847 5.73499 24.3313C5.73499 20.4778 8.84488 17.3527 12.6795 17.3527L18.8823 17.4233C19.2532 17.4233 19.5513 17.7254 19.5513 18.0956L19.6216 24.3288C19.6216 28.1823 16.5117 31.3074 12.6771 31.3074L12.6795 31.3099Z" fill="white"></path>
</g>
<defs>
<clipPath id="clip0_171_620">
<rect width="126.72" height="48" fill="white"></rect>
</clipPath>
</defs>
</svg>