<?xml version="1.0"?><svg width="100%" height="100%" viewBox="0 0 1059 384" version="1.1" xmlns="http://www.w3.org/2000/svg" xmlns:xlink="http://www.w3.org/1999/xlink" xml:space="preserve" xmlns:serif="http://www.serif.com/" style="fill-rule:evenodd;clip-rule:evenodd;stroke-linejoin:round;stroke-miterlimit:2;"><g><path d="M465.633,154.034l-6.429,-0l-5.371,53.054l-26.983,0l13.4,-127.928l26.979,-0l-5.521,51.455l6.246,-0l39.296,-51.455l27.521,-0l-46.808,61.987l36.608,65.941l-29.638,0l-29.3,-53.054Z" style="fill:#fff;fill-rule:nonzero;"></path><path d="M530.125,151.348c0,-44.484 22.692,-74.482 60.75,-74.482c34.825,-0 50.367,24.656 50.367,58.064c-0,44.303 -22.513,74.482 -60.567,74.482c-34.317,0 -50.55,-24.656 -50.55,-58.065Zm83.233,-16.085c0,-21.608 -8.754,-34.826 -24.295,-34.826c-18.23,-0 -30.905,18.741 -30.905,50.549c0,21.609 8.755,34.827 24.296,34.827c18.229,0 30.904,-18.771 30.904,-50.55Z" style="fill:#fff;fill-rule:nonzero;"></path><path d="M730.904,207.088l-76.987,-0l9.929,-94.853c1.962,-18.801 17.808,-33.045 36.7,-33.045l43.758,-0l-2.504,23.75l-37.392,0c-7.183,0 -13.221,5.403 -13.975,12.555l-1.658,15.331l50.642,-0l-2.325,22.875l-50.642,0l-3.229,29.667l50.221,-0l-2.509,23.75l-0.029,-0.03Z" style="fill:#fff;fill-rule:nonzero;"></path><path d="M802.188,160.643l-14.275,-0l-4.83,46.445l-26.979,-0l13.4,-127.898l40.559,-0c28.4,-0 42.162,14.123 42.162,35.732c0,18.409 -10.354,31.808 -24.475,38.236l21.425,53.96l-28.579,0l-18.408,-46.445l-0,-0.031Zm-8.209,-58.788l-3.741,36.094l14.637,-0c10.892,-0 20.008,-8.571 20.008,-20.914c0,-9.476 -5.887,-15.18 -17.141,-15.18l-13.763,0Z" style="fill:#fff;fill-rule:nonzero;"></path><path d="M862.938,180.833c-0,-0 13.216,5.009 28.941,5.009c17.142,0 25.2,-6.247 25.2,-15.18c0,-10.351 -10.35,-13.942 -23.058,-20.189c-16.083,-8.028 -25.529,-17.504 -25.529,-34.465c-0,-23.057 18.225,-39.112 48.95,-39.112c20.187,0 30.029,4.648 30.029,4.648l-2.509,23.056c0,0 -11.437,-4.285 -26.254,-4.285c-14.816,0 -22.875,5.885 -22.875,14.305c0,8.42 8.025,11.981 20.188,17.685c19.466,8.57 28.221,18.922 28.221,36.788c-0,24.475 -18.413,40.38 -52.696,40.38c-20.188,-0 -30.9,-5.342 -30.9,-5.342l2.321,-23.238l-0.03,-0.06Z" style="fill:#fff;fill-rule:nonzero;"></path><path d="M618.275,331.818l-42.371,-0l-10.35,24.837l-24.112,0l44.333,-105.747c5.704,-13.641 19.071,-22.513 33.858,-22.513l3.834,-0l26.616,128.26l-26.795,0l-5.013,-24.837Zm-13.942,-70.196l-19.466,47.683l29.304,-0l-9.838,-47.683Z" style="fill:#fff;fill-rule:nonzero;"></path><path d="M702.025,303.6l-6.429,0l-5.342,53.055l-26.979,0l13.4,-127.898l26.979,-0l-5.554,51.455l6.246,-0l39.325,-51.455l27.492,-0l-46.809,61.987l36.638,65.911l-29.663,-0l-29.304,-53.055Z" style="fill:#fff;fill-rule:nonzero;"></path><path d="M844.196,356.655l-44.092,0c-17.591,0 -31.325,-15.24 -29.483,-32.714l9.958,-95.184l76.988,-0l-2.504,23.75l-50.038,0l-3.05,27.856l50.371,-0l-2.325,22.875l-50.367,0l-2.083,19.315c-0.604,5.523 3.741,10.351 9.296,10.351l39.775,0l-2.505,23.751l0.059,0Z" style="fill:#fff;fill-rule:nonzero;"></path><path d="M912.883,310.21l-14.275,-0l-4.829,46.445l-26.979,0l13.4,-127.898l40.563,-0c28.395,-0 42.158,14.123 42.158,35.732c-0,18.409 -10.35,31.808 -24.475,38.236l21.425,53.96l-28.579,0l-18.409,-46.445l0,-0.03Zm-8.208,-58.759l-3.742,36.094l14.638,0c10.891,0 20.008,-8.57 20.008,-20.914c0,-9.476 -5.887,-15.18 -17.142,-15.18l-13.762,0Z" style="fill:#fff;fill-rule:nonzero;"></path><path d="M973.633,330.4c0,-0 13.221,5.009 28.942,5.009c17.142,0 25.2,-6.247 25.2,-15.18c0,-10.351 -10.35,-13.943 -23.058,-20.189c-16.084,-8.028 -25.53,-17.505 -25.53,-34.465c0,-23.057 18.23,-39.112 48.95,-39.112c20.188,-0 30.03,4.648 30.03,4.648l-2.505,23.056c0.001,0 -11.441,-4.285 -26.258,-4.285c-14.816,0 -22.875,5.885 -22.875,14.305c0,8.42 8.029,11.981 20.192,17.685c19.462,8.57 28.216,18.922 28.216,36.788c0.001,24.475 -18.408,40.379 -52.691,40.379c-20.192,0 -30.904,-5.342 -30.904,-5.342l2.321,-23.237l-0.03,-0.06Z" style="fill:#fff;fill-rule:nonzero;"></path><path d="M541.413,228.425l-0,-0.061l-29.667,0l-37.15,81.996l-20.733,-81.996l-29.817,0l-0,0.061l-0.121,-0l-12.676,120.987l-0.724,6.881l-0,0.06l22.967,0l8.662,-82.72l16.9,74.089l19.463,0l33.321,-74.995l-8.755,83.626l24.959,0l13.4,-127.928l-0.029,-0Z" style="fill:#fff;fill-rule:nonzero;"></path><path d="M167.584,130.373c-34.102,16.387 -49.041,56.103 -33.378,88.696c15.663,32.594 56.012,45.691 90.114,29.304c34.102,-16.387 93.857,-117.788 93.857,-117.788c0,-0 -116.491,-16.629 -150.593,-0.212Zm23.721,108.977c-26.256,-0 -47.563,-21.277 -47.563,-47.562c0,-26.286 21.277,-47.563 47.563,-47.563c26.285,0 47.562,21.277 47.562,47.563c-0,26.285 -21.277,47.562 -47.562,47.562Z" style="fill:#fff;fill-rule:nonzero;"></path></g></svg>